<svg xmlns="http://www.w3.org/2000/svg" xmlns:xlink="http://www.w3.org/1999/xlink" width="1040" height="711.3"><rect width="1040" height="711.3" rx="5" ry="5" class="a"/><svg y="0%" x="0%"><circle cx="20" cy="20" r="6" fill="#ff5f58"/><circle cx="40" cy="20" r="6" fill="#ffbd2e"/><circle cx="60" cy="20" r="6" fill="#18c132"/></svg><svg height="651.3" viewBox="0 0 100 65.13" width="1000" x="15" xmlns="http://www.w3.org/2000/svg" xmlns:xlink="http://www.w3.org/1999/xlink" y="50"><style>@keyframes q{0%{transform:translateX(0)}.9%{transform:translateX(-100px)}1.8%{transform:translateX(-200px)}2.7%{transform:translateX(-300px)}3.5%{transform:translateX(-400px)}4.4%{transform:translateX(-500px)}5.3%{transform:translateX(-600px)}6.2%{transform:translateX(-700px)}7.1%{transform:translateX(-800px)}8%{transform:translateX(-900px)}8.9%{transform:translateX(-1000px)}9.8%{transform:translateX(-1100px)}10.7%{transform:translateX(-1200px)}11.6%{transform:translateX(-1300px)}12.5%{transform:translateX(-1400px)}13.4%{transform:translateX(-1500px)}14.3%{transform:translateX(-1600px)}15.2%{transform:translateX(-1700px)}16.1%{transform:translateX(-1800px)}17%{transform:translateX(-1900px)}17.9%{transform:translateX(-2000px)}18.8%{transform:translateX(-2100px)}19.7%{transform:translateX(-2200px)}20.6%{transform:translateX(-2300px)}21.5%{transform:translateX(-2400px)}22.3%{transform:translateX(-2500px)}23.2%{transform:translateX(-2600px)}24.1%{transform:translateX(-2700px)}25%{transform:translateX(-2800px)}25.9%{transform:translateX(-2900px)}26.8%{transform:translateX(-3000px)}27.7%{transform:translateX(-3100px)}28.6%{transform:translateX(-3200px)}29.5%{transform:translateX(-3300px)}30.4%{transform:translateX(-3400px)}31.3%{transform:translateX(-3500px)}32.2%{transform:translateX(-3600px)}33.1%{transform:translateX(-3700px)}34%{transform:translateX(-3800px)}34.9%{transform:translateX(-3900px)}35.8%{transform:translateX(-4000px)}36.7%{transform:translateX(-4100px)}37.6%{transform:translateX(-4200px)}38.5%{transform:translateX(-4300px)}39.4%{transform:translateX(-4400px)}40.3%{transform:translateX(-4500px)}41.1%{transform:translateX(-4600px)}42%{transform:translateX(-4700px)}42.9%{transform:translateX(-4800px)}43.8%{transform:translateX(-4900px)}44.7%{transform:translateX(-5000px)}45.6%{transform:translateX(-5100px)}46.5%{transform:translateX(-5200px)}47.4%{transform:translateX(-5300px)}48.3%{transform:translateX(-5400px)}49.2%{transform:translateX(-5500px)}50.1%{transform:translateX(-5600px)}51%{transform:translateX(-5700px)}51.9%{transform:translateX(-5800px)}52.8%{transform:translateX(-5900px)}53.7%{transform:translateX(-6000px)}54.6%{transform:translateX(-6100px)}55.5%{transform:translateX(-6200px)}56.4%{transform:translateX(-6300px)}57%{transform:translateX(-7500px)}60.8%{transform:translateX(-7600px)}64.5%{transform:translateX(-7700px)}68.3%{transform:translateX(-7800px)}72.1%{transform:translateX(-7900px)}75.8%{transform:translateX(-8000px)}79.6%{transform:translateX(-8100px)}83.3%{transform:translateX(-8200px)}87.1%{transform:translateX(-8300px)}90.9%{transform:translateX(-8400px)}94.6%{transform:translateX(-8500px)}98.4%{transform:translateX(-8600px)}to{transform:translateX(-8700px)}}.a{fill:#282d35}.f,.g{fill:#b9c0cb;white-space:pre}.g{font-weight:700}.j{fill:gold}.k,.l,.m,.n{white-space:pre}.l,.m,.n{fill:#dbab79}.m,.n{fill:#a8cc8c}.n{font-weight:700}</style><g font-family="Monaco,Consolas,Menlo,'Bitstream Vera Sans Mono','Powerline Symbols',monospace" font-size="1.67"><defs><symbol id="1"><text y="1.67" class="f">$</text><text x="2.004" y="1.67" class="f">neuroprivacy</text></symbol><symbol id="2"><text y="1.67" class="f">$</text><text x="2.004" y="1.67" class="f">neuroprivacy</text><text x="15.03" y="1.67" class="f">extract</text></symbol><symbol id="3"><text y="1.67" class="f">$</text><text x="2.004" y="1.67" class="f">neuroprivacy</text><text x="15.03" y="1.67" class="f">extract</text><text x="23.046" y="1.67" class="f">--doc</text></symbol><symbol id="4"><text y="1.67" class="f">$</text><text x="2.004" y="1.67" class="f">neuroprivacy</text><text x="15.03" y="1.67" class="f">extract</text><text x="23.046" y="1.67" class="f">--doc</text><text x="29.058" y="1.67" class="f">data/sample/vendor-a.html</text></symbol><symbol id="5"><text y="1.67" class="f">$</text><text x="2.004" y="1.67" class="f">neuroprivacy</text><text x="15.03" y="1.67" class="f">extract</text><text x="23.046" y="1.67" class="f">--doc</text><text x="29.058" y="1.67" class="f">data/sample/vendor-a.html</text><text x="55.11" y="1.67" class="f">--summary</text></symbol><symbol id="6"><text y="1.67" class="g">neuroprivacy</text><text x="13.026" y="1.67" class="g">extract</text></symbol><symbol id="7"><text x="20.04" y="1.67" class="f">doc:</text><text x="25.05" y="1.67" style="white-space:pre" fill="#d290e4">/agent/repos/neuroprivacy/data/sample/</text><text x="63.126" y="1.67" style="white-space:pre" fill="#d290e3">vendor-a.html</text></symbol><symbol id="8"><text x="76.152" y="1.67" class="f">LLM:</text><text x="81.162" y="1.67" class="f">committed</text><text x="91.182" y="1.67" class="f">cache</text><text x="97.194" y="1.67" class="f">onl</text></symbol><symbol id="9"><text y="1.67" class="f">y</text><text x="2.004" y="1.67" class="g">(</text><text x="3.006" y="1.67" class="f">no</text><text x="6.012" y="1.67" class="f">live</text><text x="11.022" y="1.67" class="f">model</text><text x="16.032" y="1.67" class="g">)</text><text x="17.034" y="1.67" class="f">.</text><text x="19.038" y="1.67" class="f">Span-level</text><text x="30.06" y="1.67" class="f">citation</text><text x="39.078" y="1.67" class="f">is</text><text x="42.084" y="1.67" class="f">mandatory.</text></symbol><symbol id="10"><path class="j" d="M52.104 0h24v2.171h-24z"/><text x="52.104" y="1.67" class="k">discloses_sale: true</text><path class="j" d="M76.152 0h4v2.171h-4z"/><text x="76.152" y="1.67" class="l">span</text><text x="80.16" y="1.67" class="f">=</text><text x="81.162" y="1.67" class="m">&quot;sell&quot;</text><text x="89.178" y="1.67" class="l">offsets</text><text x="96.192" y="1.67" class="f">=</text><text x="97.194" y="1.67" class="n">515</text></symbol><symbol id="11"><text y="1.67" class="n">:519</text></symbol><symbol id="12"><path class="j" d="M4.008 0h25v2.171h-25z"/><text x="4.008" y="1.67" class="k">grants_deletion: true</text><path class="j" d="M29.058 0h4v2.171h-4z"/><text x="29.058" y="1.67" class="l">span</text><text x="33.066" y="1.67" class="f">=</text><text x="34.068" y="1.67" class="m">&quot;right</text><text x="41.082" y="1.67" class="m">to</text><text x="44.088" y="1.67" class="m">delete&quot;</text><text x="53.106" y="1.67" class="l">offsets</text><text x="60.12" y="1.67" class="f">=</text><text x="61.122" y="1.67" class="n">254:269</text></symbol><symbol id="13"><path class="j" d="M68.136 0h27v2.171h-27z"/><text x="68.136" y="1.67" class="k">names_neural_data: true</text><path class="j" d="M95.19 0h4v2.171h-4z"/><text x="95.19" y="1.67" class="l">span</text><text x="99.198" y="1.67" class="f">=</text></symbol><symbol id="14"><text y="1.67" class="m">&quot;neural</text><text x="8.016" y="1.67" class="m">data&quot;</text><text x="15.03" y="1.67" class="l">offsets</text><text x="22.044" y="1.67" class="f">=</text><text x="23.046" y="1.67" class="n">170:181</text></symbol><symbol id="15"><path class="j" d="M30.06 0h38v2.171h-38z"/><text x="30.06" y="1.67" class="k">states_consent_for_sensitive: true</text><path class="j" d="M68.136 0h4v2.171h-4z"/><text x="68.136" y="1.67" class="l">span</text><text x="72.144" y="1.67" class="f">=</text><text x="73.146" y="1.67" class="m">&quot;consent&quot;</text><text x="84.168" y="1.67" class="l">offsets</text><text x="91.182" y="1.67" class="f">=</text><text x="92.184" y="1.67" class="n">335:342</text></symbol><symbol id="16"><text x="99.198" y="1.67" class="f">d</text></symbol><symbol id="17"><text y="1.67" class="f">ocument</text><text x="8.016" y="1.67" class="f">status:</text><text x="16.032" y="1.67" class="f">COMPLIANT</text></symbol><symbol id="18"><path class="j" d="M25.05 0h60v2.171h-60z"/><text x="25.05" y="1.67" class="k">span-level citation: every true field has character offsets.</text></symbol><symbol id="19"><text x="85.17" y="1.67" class="f">Observations</text><text x="98.196" y="1.67" class="f">on</text></symbol><symbol id="20"><text y="1.67" class="f">ly.</text><text x="4.008" y="1.67" class="f">This</text><text x="9.018" y="1.67" class="f">output</text><text x="16.032" y="1.67" class="f">is</text><text x="19.038" y="1.67" class="f">not</text><text x="23.046" y="1.67" class="f">a</text><text x="25.05" y="1.67" class="f">legal</text><text x="31.062" y="1.67" class="f">conclusion,</text><text x="43.086" y="1.67" class="f">not</text><text x="47.094" y="1.67" class="f">legal</text><text x="53.106" y="1.67" class="f">advice,</text><text x="61.122" y="1.67" class="f">and</text><text x="65.13" y="1.67" class="f">not</text><text x="69.138" y="1.67" class="f">a</text><text x="71.142" y="1.67" class="f">compliance</text></symbol><symbol id="21"><text x="82.164" y="1.67" class="f">certification.</text><text x="97.194" y="1.67" class="f">Pub</text></symbol><symbol id="22"><text y="1.67" class="f">lic</text><text x="4.008" y="1.67" class="f">policies</text><text x="13.026" y="1.67" class="f">only;</text><text x="19.038" y="1.67" class="f">no</text><text x="22.044" y="1.67" class="f">circumvention.</text></symbol><symbol id="a"><path fill="transparent" d="M0 0h100v31H0z"/></symbol><symbol id="b"><path fill="#6f7683" d="M0 0h1.102v2.171H0z"/></symbol></defs><path class="a" d="M0 0h100v65.13H0z"/><g style="animation-duration:9.3083s;animation-iteration-count:infinite;animation-name:q;animation-timing-function:steps(1,end)"><svg width="8800"><svg><use xlink:href="#a"/><use xlink:href="#b" x="-.004"/></svg><svg x="100"><use xlink:href="#a"/><use xlink:href="#b" x="1.996"/><text y="1.67" class="f">$</text></svg><svg x="200"><use xlink:href="#a"/><use xlink:href="#b" x="2.996"/><text y="1.67" class="f">$</text><text x="2.004" y="1.67" class="f">n</text></svg><svg x="300"><use xlink:href="#a"/><use xlink:href="#b" x="3.996"/><text y="1.67" class="f">$</text><text x="2.004" y="1.67" class="f">ne</text></svg><svg x="400"><use xlink:href="#a"/><use xlink:href="#b" x="4.996"/><text y="1.67" class="f">$</text><text x="2.004" y="1.67" class="f">neu</text></svg><svg x="500"><use xlink:href="#a"/><use xlink:href="#b" x="5.996"/><text y="1.67" class="f">$</text><text x="2.004" y="1.67" class="f">neur</text></svg><svg x="600"><use xlink:href="#a"/><use xlink:href="#b" x="6.996"/><text y="1.67" class="f">$</text><text x="2.004" y="1.67" class="f">neuro</text></svg><svg x="700"><use xlink:href="#a"/><use xlink:href="#b" x="7.996"/><text y="1.67" class="f">$</text><text x="2.004" y="1.67" class="f">neurop</text></svg><svg x="800"><use xlink:href="#a"/><use xlink:href="#b" x="8.996"/><text y="1.67" class="f">$</text><text x="2.004" y="1.67" class="f">neuropr</text></svg><svg x="900"><use xlink:href="#a"/><use xlink:href="#b" x="9.996"/><text y="1.67" class="f">$</text><text x="2.004" y="1.67" class="f">neuropri</text></svg><svg x="1000"><use xlink:href="#a"/><use xlink:href="#b" x="10.996"/><text y="1.67" class="f">$</text><text x="2.004" y="1.67" class="f">neuropriv</text></svg><svg x="1100"><use xlink:href="#a"/><use xlink:href="#b" x="11.996"/><text y="1.67" class="f">$</text><text x="2.004" y="1.67" class="f">neuropriva</text></svg><svg x="1200"><use xlink:href="#a"/><use xlink:href="#b" x="12.996"/><text y="1.67" class="f">$</text><text x="2.004" y="1.67" class="f">neuroprivac</text></svg><svg x="1300"><use xlink:href="#a"/><use xlink:href="#b" x="13.996"/><use xlink:href="#1"/></svg><svg x="1400"><use xlink:href="#a"/><use xlink:href="#b" x="14.996"/><use xlink:href="#1"/></svg><svg x="1500"><use xlink:href="#a"/><use xlink:href="#b" x="15.996"/><text y="1.67" class="f">$</text><text x="2.004" y="1.67" class="f">neuroprivacy</text><text x="15.03" y="1.67" class="f">e</text></svg><svg x="1600"><use xlink:href="#a"/><use xlink:href="#b" x="16.996"/><text y="1.67" class="f">$</text><text x="2.004" y="1.67" class="f">neuroprivacy</text><text x="15.03" y="1.67" class="f">ex</text></svg><svg x="1700"><use xlink:href="#a"/><use xlink:href="#b" x="17.996"/><text y="1.67" class="f">$</text><text x="2.004" y="1.67" class="f">neuroprivacy</text><text x="15.03" y="1.67" class="f">ext</text></svg><svg x="1800"><use xlink:href="#a"/><use xlink:href="#b" x="18.996"/><text y="1.67" class="f">$</text><text x="2.004" y="1.67" class="f">neuroprivacy</text><text x="15.03" y="1.67" class="f">extr</text></svg><svg x="1900"><use xlink:href="#a"/><use xlink:href="#b" x="19.996"/><text y="1.67" class="f">$</text><text x="2.004" y="1.67" class="f">neuroprivacy</text><text x="15.03" y="1.67" class="f">extra</text></svg><svg x="2000"><use xlink:href="#a"/><use xlink:href="#b" x="20.996"/><text y="1.67" class="f">$</text><text x="2.004" y="1.67" class="f">neuroprivacy</text><text x="15.03" y="1.67" class="f">extrac</text></svg><svg x="2100"><use xlink:href="#a"/><use xlink:href="#b" x="21.996"/><use xlink:href="#2"/></svg><svg x="2200"><use xlink:href="#a"/><use xlink:href="#b" x="22.996"/><use xlink:href="#2"/></svg><svg x="2300"><use xlink:href="#a"/><use xlink:href="#b" x="23.996"/><text y="1.67" class="f">$</text><text x="2.004" y="1.67" class="f">neuroprivacy</text><text x="15.03" y="1.67" class="f">extract</text><text x="23.046" y="1.67" class="f">-</text></svg><svg x="2400"><use xlink:href="#a"/><use xlink:href="#b" x="24.996"/><text y="1.67" class="f">$</text><text x="2.004" y="1.67" class="f">neuroprivacy</text><text x="15.03" y="1.67" class="f">extract</text><text x="23.046" y="1.67" class="f">--</text></svg><svg x="2500"><use xlink:href="#a"/><use xlink:href="#b" x="25.996"/><text y="1.67" class="f">$</text><text x="2.004" y="1.67" class="f">neuroprivacy</text><text x="15.03" y="1.67" class="f">extract</text><text x="23.046" y="1.67" class="f">--d</text></svg><svg x="2600"><use xlink:href="#a"/><use xlink:href="#b" x="26.996"/><text y="1.67" class="f">$</text><text x="2.004" y="1.67" class="f">neuroprivacy</text><text x="15.03" y="1.67" class="f">extract</text><text x="23.046" y="1.67" class="f">--do</text></svg><svg x="2700"><use xlink:href="#a"/><use xlink:href="#b" x="27.996"/><use xlink:href="#3"/></svg><svg x="2800"><use xlink:href="#a"/><use xlink:href="#b" x="28.996"/><use xlink:href="#3"/></svg><svg x="2900"><use xlink:href="#a"/><use xlink:href="#b" x="29.996"/><text y="1.67" class="f">$</text><text x="2.004" y="1.67" class="f">neuroprivacy</text><text x="15.03" y="1.67" class="f">extract</text><text x="23.046" y="1.67" class="f">--doc</text><text x="29.058" y="1.67" class="f">d</text></svg><svg x="3000"><use xlink:href="#a"/><use xlink:href="#b" x="30.996"/><text y="1.67" class="f">$</text><text x="2.004" y="1.67" class="f">neuroprivacy</text><text x="15.03" y="1.67" class="f">extract</text><text x="23.046" y="1.67" class="f">--doc</text><text x="29.058" y="1.67" class="f">da</text></svg><svg x="3100"><use xlink:href="#a"/><use xlink:href="#b" x="31.996"/><text y="1.67" class="f">$</text><text x="2.004" y="1.67" class="f">neuroprivacy</text><text x="15.03" y="1.67" class="f">extract</text><text x="23.046" y="1.67" class="f">--doc</text><text x="29.058" y="1.67" class="f">dat</text></svg><svg x="3200"><use xlink:href="#a"/><use xlink:href="#b" x="32.996"/><text y="1.67" class="f">$</text><text x="2.004" y="1.67" class="f">neuroprivacy</text><text x="15.03" y="1.67" class="f">extract</text><text x="23.046" y="1.67" class="f">--doc</text><text x="29.058" y="1.67" class="f">data</text></svg><svg x="3300"><use xlink:href="#a"/><use xlink:href="#b" x="33.996"/><text y="1.67" class="f">$</text><text x="2.004" y="1.67" class="f">neuroprivacy</text><text x="15.03" y="1.67" class="f">extract</text><text x="23.046" y="1.67" class="f">--doc</text><text x="29.058" y="1.67" class="f">data/</text></svg><svg x="3400"><use xlink:href="#a"/><use xlink:href="#b" x="34.996"/><text y="1.67" class="f">$</text><text x="2.004" y="1.67" class="f">neuroprivacy</text><text x="15.03" y="1.67" class="f">extract</text><text x="23.046" y="1.67" class="f">--doc</text><text x="29.058" y="1.67" class="f">data/s</text></svg><svg x="3500"><use xlink:href="#a"/><use xlink:href="#b" x="35.996"/><text y="1.67" class="f">$</text><text x="2.004" y="1.67" class="f">neuroprivacy</text><text x="15.03" y="1.67" class="f">extract</text><text x="23.046" y="1.67" class="f">--doc</text><text x="29.058" y="1.67" class="f">data/sa</text></svg><svg x="3600"><use xlink:href="#a"/><use xlink:href="#b" x="36.996"/><text y="1.67" class="f">$</text><text x="2.004" y="1.67" class="f">neuroprivacy</text><text x="15.03" y="1.67" class="f">extract</text><text x="23.046" y="1.67" class="f">--doc</text><text x="29.058" y="1.67" class="f">data/sam</text></svg><svg x="3700"><use xlink:href="#a"/><use xlink:href="#b" x="37.996"/><text y="1.67" class="f">$</text><text x="2.004" y="1.67" class="f">neuroprivacy</text><text x="15.03" y="1.67" class="f">extract</text><text x="23.046" y="1.67" class="f">--doc</text><text x="29.058" y="1.67" class="f">data/samp</text></svg><svg x="3800"><use xlink:href="#a"/><use xlink:href="#b" x="38.996"/><text y="1.67" class="f">$</text><text x="2.004" y="1.67" class="f">neuroprivacy</text><text x="15.03" y="1.67" class="f">extract</text><text x="23.046" y="1.67" class="f">--doc</text><text x="29.058" y="1.67" class="f">data/sampl</text></svg><svg x="3900"><use xlink:href="#a"/><use xlink:href="#b" x="39.996"/><text y="1.67" class="f">$</text><text x="2.004" y="1.67" class="f">neuroprivacy</text><text x="15.03" y="1.67" class="f">extract</text><text x="23.046" y="1.67" class="f">--doc</text><text x="29.058" y="1.67" class="f">data/sample</text></svg><svg x="4000"><use xlink:href="#a"/><use xlink:href="#b" x="40.996"/><text y="1.67" class="f">$</text><text x="2.004" y="1.67" class="f">neuroprivacy</text><text x="15.03" y="1.67" class="f">extract</text><text x="23.046" y="1.67" class="f">--doc</text><text x="29.058" y="1.67" class="f">data/sample/</text></svg><svg x="4100"><use xlink:href="#a"/><use xlink:href="#b" x="41.996"/><text y="1.67" class="f">$</text><text x="2.004" y="1.67" class="f">neuroprivacy</text><text x="15.03" y="1.67" class="f">extract</text><text x="23.046" y="1.67" class="f">--doc</text><text x="29.058" y="1.67" class="f">data/sample/v</text></svg><svg x="4200"><use xlink:href="#a"/><use xlink:href="#b" x="42.996"/><text y="1.67" class="f">$</text><text x="2.004" y="1.67" class="f">neuroprivacy</text><text x="15.03" y="1.67" class="f">extract</text><text x="23.046" y="1.67" class="f">--doc</text><text x="29.058" y="1.67" class="f">data/sample/ve</text></svg><svg x="4300"><use xlink:href="#a"/><use xlink:href="#b" x="43.996"/><text y="1.67" class="f">$</text><text x="2.004" y="1.67" class="f">neuroprivacy</text><text x="15.03" y="1.67" class="f">extract</text><text x="23.046" y="1.67" class="f">--doc</text><text x="29.058" y="1.67" class="f">data/sample/ven</text></svg><svg x="4400"><use xlink:href="#a"/><use xlink:href="#b" x="44.996"/><text y="1.67" class="f">$</text><text x="2.004" y="1.67" class="f">neuroprivacy</text><text x="15.03" y="1.67" class="f">extract</text><text x="23.046" y="1.67" class="f">--doc</text><text x="29.058" y="1.67" class="f">data/sample/vend</text></svg><svg x="4500"><use xlink:href="#a"/><use xlink:href="#b" x="45.996"/><text y="1.67" class="f">$</text><text x="2.004" y="1.67" class="f">neuroprivacy</text><text x="15.03" y="1.67" class="f">extract</text><text x="23.046" y="1.67" class="f">--doc</text><text x="29.058" y="1.67" class="f">data/sample/vendo</text></svg><svg x="4600"><use xlink:href="#a"/><use xlink:href="#b" x="46.996"/><text y="1.67" class="f">$</text><text x="2.004" y="1.67" class="f">neuroprivacy</text><text x="15.03" y="1.67" class="f">extract</text><text x="23.046" y="1.67" class="f">--doc</text><text x="29.058" y="1.67" class="f">data/sample/vendor</text></svg><svg x="4700"><use xlink:href="#a"/><use xlink:href="#b" x="47.996"/><text y="1.67" class="f">$</text><text x="2.004" y="1.67" class="f">neuroprivacy</text><text x="15.03" y="1.67" class="f">extract</text><text x="23.046" y="1.67" class="f">--doc</text><text x="29.058" y="1.67" class="f">data/sample/vendor-</text></svg><svg x="4800"><use xlink:href="#a"/><use xlink:href="#b" x="48.996"/><text y="1.67" class="f">$</text><text x="2.004" y="1.67" class="f">neuroprivacy</text><text x="15.03" y="1.67" class="f">extract</text><text x="23.046" y="1.67" class="f">--doc</text><text x="29.058" y="1.67" class="f">data/sample/vendor-a</text></svg><svg x="4900"><use xlink:href="#a"/><use xlink:href="#b" x="49.996"/><text y="1.67" class="f">$</text><text x="2.004" y="1.67" class="f">neuroprivacy</text><text x="15.03" y="1.67" class="f">extract</text><text x="23.046" y="1.67" class="f">--doc</text><text x="29.058" y="1.67" class="f">data/sample/vendor-a.</text></svg><svg x="5000"><use xlink:href="#a"/><use xlink:href="#b" x="50.996"/><text y="1.67" class="f">$</text><text x="2.004" y="1.67" class="f">neuroprivacy</text><text x="15.03" y="1.67" class="f">extract</text><text x="23.046" y="1.67" class="f">--doc</text><text x="29.058" y="1.67" class="f">data/sample/vendor-a.h</text></svg><svg x="5100"><use xlink:href="#a"/><use xlink:href="#b" x="51.996"/><text y="1.67" class="f">$</text><text x="2.004" y="1.67" class="f">neuroprivacy</text><text x="15.03" y="1.67" class="f">extract</text><text x="23.046" y="1.67" class="f">--doc</text><text x="29.058" y="1.67" class="f">data/sample/vendor-a.ht</text></svg><svg x="5200"><use xlink:href="#a"/><use xlink:href="#b" x="52.996"/><text y="1.67" class="f">$</text><text x="2.004" y="1.67" class="f">neuroprivacy</text><text x="15.03" y="1.67" class="f">extract</text><text x="23.046" y="1.67" class="f">--doc</text><text x="29.058" y="1.67" class="f">data/sample/vendor-a.htm</text></svg><svg x="5300"><use xlink:href="#a"/><use xlink:href="#b" x="53.996"/><use xlink:href="#4"/></svg><svg x="5400"><use xlink:href="#a"/><use xlink:href="#b" x="54.996"/><use xlink:href="#4"/></svg><svg x="5500"><use xlink:href="#a"/><use xlink:href="#b" x="55.996"/><text y="1.67" class="f">$</text><text x="2.004" y="1.67" class="f">neuroprivacy</text><text x="15.03" y="1.67" class="f">extract</text><text x="23.046" y="1.67" class="f">--doc</text><text x="29.058" y="1.67" class="f">data/sample/vendor-a.html</text><text x="55.11" y="1.67" class="f">-</text></svg><svg x="5600"><use xlink:href="#a"/><use xlink:href="#b" x="56.996"/><text y="1.67" class="f">$</text><text x="2.004" y="1.67" class="f">neuroprivacy</text><text x="15.03" y="1.67" class="f">extract</text><text x="23.046" y="1.67" class="f">--doc</text><text x="29.058" y="1.67" class="f">data/sample/vendor-a.html</text><text x="55.11" y="1.67" class="f">--</text></svg><svg x="5700"><use xlink:href="#a"/><use xlink:href="#b" x="57.996"/><text y="1.67" class="f">$</text><text x="2.004" y="1.67" class="f">neuroprivacy</text><text x="15.03" y="1.67" class="f">extract</text><text x="23.046" y="1.67" class="f">--doc</text><text x="29.058" y="1.67" class="f">data/sample/vendor-a.html</text><text x="55.11" y="1.67" class="f">--s</text></svg><svg x="5800"><use xlink:href="#a"/><use xlink:href="#b" x="58.996"/><text y="1.67" class="f">$</text><text x="2.004" y="1.67" class="f">neuroprivacy</text><text x="15.03" y="1.67" class="f">extract</text><text x="23.046" y="1.67" class="f">--doc</text><text x="29.058" y="1.67" class="f">data/sample/vendor-a.html</text><text x="55.11" y="1.67" class="f">--su</text></svg><svg x="5900"><use xlink:href="#a"/><use xlink:href="#b" x="59.996"/><text y="1.67" class="f">$</text><text x="2.004" y="1.67" class="f">neuroprivacy</text><text x="15.03" y="1.67" class="f">extract</text><text x="23.046" y="1.67" class="f">--doc</text><text x="29.058" y="1.67" class="f">data/sample/vendor-a.html</text><text x="55.11" y="1.67" class="f">--sum</text></svg><svg x="6000"><use xlink:href="#a"/><use xlink:href="#b" x="60.996"/><text y="1.67" class="f">$</text><text x="2.004" y="1.67" class="f">neuroprivacy</text><text x="15.03" y="1.67" class="f">extract</text><text x="23.046" y="1.67" class="f">--doc</text><text x="29.058" y="1.67" class="f">data/sample/vendor-a.html</text><text x="55.11" y="1.67" class="f">--summ</text></svg><svg x="6100"><use xlink:href="#a"/><use xlink:href="#b" x="61.996"/><text y="1.67" class="f">$</text><text x="2.004" y="1.67" class="f">neuroprivacy</text><text x="15.03" y="1.67" class="f">extract</text><text x="23.046" y="1.67" class="f">--doc</text><text x="29.058" y="1.67" class="f">data/sample/vendor-a.html</text><text x="55.11" y="1.67" class="f">--summa</text></svg><svg x="6200"><use xlink:href="#a"/><use xlink:href="#b" x="62.996"/><text y="1.67" class="f">$</text><text x="2.004" y="1.67" class="f">neuroprivacy</text><text x="15.03" y="1.67" class="f">extract</text><text x="23.046" y="1.67" class="f">--doc</text><text x="29.058" y="1.67" class="f">data/sample/vendor-a.html</text><text x="55.11" y="1.67" class="f">--summar</text></svg><svg x="6300"><use xlink:href="#a"/><use xlink:href="#b" x="63.996"/><use xlink:href="#5"/></svg><svg x="6400"><use xlink:href="#a"/><use xlink:href="#b" x="-.004" y="2.146"/><use xlink:href="#5"/></svg><svg x="6500"><use xlink:href="#a"/><use xlink:href="#b" x="19.996" y="4.317"/><use xlink:href="#5"/><use xlink:href="#6" y="2.171"/></svg><svg x="6600"><use xlink:href="#a"/><use xlink:href="#b" x="75.996" y="6.488"/><use xlink:href="#5"/><use xlink:href="#6" y="2.171"/><use xlink:href="#7" y="4.342"/></svg><svg x="6700"><use xlink:href="#a"/><use xlink:href="#b" x="51.996" y="10.83"/><use xlink:href="#5"/><use xlink:href="#6" y="2.171"/><use xlink:href="#7" y="4.342"/><use xlink:href="#8" y="6.513"/><use xlink:href="#9" y="8.684"/></svg><svg x="6800"><use xlink:href="#a"/><use xlink:href="#b" x="3.996" y="15.172"/><use xlink:href="#5"/><use xlink:href="#6" y="2.171"/><use xlink:href="#7" y="4.342"/><use xlink:href="#8" y="6.513"/><use xlink:href="#9" y="8.684"/><use xlink:href="#10" y="10.855"/><use xlink:href="#11" y="13.026"/></svg><svg x="6900"><use xlink:href="#a"/><use xlink:href="#b" x="67.996" y="17.343"/><use xlink:href="#5"/><use xlink:href="#6" y="2.171"/><use xlink:href="#7" y="4.342"/><use xlink:href="#8" y="6.513"/><use xlink:href="#9" y="8.684"/><use xlink:href="#10" y="10.855"/><use xlink:href="#11" y="13.026"/><use xlink:href="#12" y="15.197"/></svg><svg x="7000"><use xlink:href="#a"/><use xlink:href="#b" x="29.996" y="21.685"/><use xlink:href="#5"/><use xlink:href="#6" y="2.171"/><use xlink:href="#7" y="4.342"/><use xlink:href="#8" y="6.513"/><use xlink:href="#9" y="8.684"/><use xlink:href="#10" y="10.855"/><use xlink:href="#11" y="13.026"/><use xlink:href="#12" y="15.197"/><use xlink:href="#13" y="17.368"/><use xlink:href="#14" y="19.539"/></svg><svg x="7100"><use xlink:href="#a"/><use xlink:href="#b" x="98.996" y="23.856"/><use xlink:href="#5"/><use xlink:href="#6" y="2.171"/><use xlink:href="#7" y="4.342"/><use xlink:href="#8" y="6.513"/><use xlink:href="#9" y="8.684"/><use xlink:href="#10" y="10.855"/><use xlink:href="#11" y="13.026"/><use xlink:href="#12" y="15.197"/><use xlink:href="#13" y="17.368"/><use xlink:href="#14" y="19.539"/><use xlink:href="#15" y="21.71"/></svg><svg x="7200"><use xlink:href="#a"/><use xlink:href="#b" x="24.996" y="28.198"/><use xlink:href="#5"/><use xlink:href="#6" y="2.171"/><use xlink:href="#7" y="4.342"/><use xlink:href="#8" y="6.513"/><use xlink:href="#9" y="8.684"/><use xlink:href="#10" y="10.855"/><use xlink:href="#11" y="13.026"/><use xlink:href="#12" y="15.197"/><use xlink:href="#13" y="17.368"/><use xlink:href="#14" y="19.539"/><use xlink:href="#15" y="21.71"/><use xlink:href="#16" y="23.881"/><use xlink:href="#17" y="26.052"/></svg><svg x="7300"><use xlink:href="#a"/><use xlink:href="#b" x="84.996" y="30.369"/><use xlink:href="#5"/><use xlink:href="#6" y="2.171"/><use xlink:href="#7" y="4.342"/><use xlink:href="#8" y="6.513"/><use xlink:href="#9" y="8.684"/><use xlink:href="#10" y="10.855"/><use xlink:href="#11" y="13.026"/><use xlink:href="#12" y="15.197"/><use xlink:href="#13" y="17.368"/><use xlink:href="#14" y="19.539"/><use xlink:href="#15" y="21.71"/><use xlink:href="#16" y="23.881"/><use xlink:href="#17" y="26.052"/><use xlink:href="#18" y="28.223"/></svg><svg x="7400"><use xlink:href="#a"/><use xlink:href="#b" x="81.996" y="34.711"/><use xlink:href="#5"/><use xlink:href="#6" y="2.171"/><use xlink:href="#7" y="4.342"/><use xlink:href="#8" y="6.513"/><use xlink:href="#9" y="8.684"/><use xlink:href="#10" y="10.855"/><use xlink:href="#11" y="13.026"/><use xlink:href="#12" y="15.197"/><use xlink:href="#13" y="17.368"/><use xlink:href="#14" y="19.539"/><use xlink:href="#15" y="21.71"/><use xlink:href="#16" y="23.881"/><use xlink:href="#17" y="26.052"/><use xlink:href="#18" y="28.223"/><use xlink:href="#19" y="30.394"/><use xlink:href="#20" y="32.565"/></svg><svg x="7500"><use xlink:href="#a"/><use xlink:href="#b" x="35.996" y="39.053"/><use xlink:href="#5"/><use xlink:href="#6" y="2.171"/><use xlink:href="#7" y="4.342"/><use xlink:href="#8" y="6.513"/><use xlink:href="#9" y="8.684"/><use xlink:href="#10" y="10.855"/><use xlink:href="#11" y="13.026"/><use xlink:href="#12" y="15.197"/><use xlink:href="#13" y="17.368"/><use xlink:href="#14" y="19.539"/><use xlink:href="#15" y="21.71"/><use xlink:href="#16" y="23.881"/><use xlink:href="#17" y="26.052"/><use xlink:href="#18" y="28.223"/><use xlink:href="#19" y="30.394"/><use xlink:href="#20" y="32.565"/><use xlink:href="#21" y="34.736"/><use xlink:href="#22" y="36.907"/></svg><svg x="7600"><use xlink:href="#a"/><use xlink:href="#b" x="35.996" y="39.053"/><use xlink:href="#5"/><use xlink:href="#6" y="2.171"/><use xlink:href="#7" y="4.342"/><use xlink:href="#8" y="6.513"/><use xlink:href="#9" y="8.684"/><use xlink:href="#10" y="10.855"/><use xlink:href="#11" y="13.026"/><use xlink:href="#12" y="15.197"/><use xlink:href="#13" y="17.368"/><use xlink:href="#14" y="19.539"/><use xlink:href="#15" y="21.71"/><use xlink:href="#16" y="23.881"/><use xlink:href="#17" y="26.052"/><use xlink:href="#18" y="28.223"/><use xlink:href="#19" y="30.394"/><use xlink:href="#20" y="32.565"/><use xlink:href="#21" y="34.736"/><use xlink:href="#22" y="36.907"/></svg><svg x="7700"><use xlink:href="#a"/><use xlink:href="#b" x="35.996" y="39.053"/><use xlink:href="#5"/><use xlink:href="#6" y="2.171"/><use xlink:href="#7" y="4.342"/><use xlink:href="#8" y="6.513"/><use xlink:href="#9" y="8.684"/><use xlink:href="#10" y="10.855"/><use xlink:href="#11" y="13.026"/><use xlink:href="#12" y="15.197"/><use xlink:href="#13" y="17.368"/><use xlink:href="#14" y="19.539"/><use xlink:href="#15" y="21.71"/><use xlink:href="#16" y="23.881"/><use xlink:href="#17" y="26.052"/><use xlink:href="#18" y="28.223"/><use xlink:href="#19" y="30.394"/><use xlink:href="#20" y="32.565"/><use xlink:href="#21" y="34.736"/><use xlink:href="#22" y="36.907"/></svg><svg x="7800"><use xlink:href="#a"/><use xlink:href="#b" x="35.996" y="39.053"/><use xlink:href="#5"/><use xlink:href="#6" y="2.171"/><use xlink:href="#7" y="4.342"/><use xlink:href="#8" y="6.513"/><use xlink:href="#9" y="8.684"/><use xlink:href="#10" y="10.855"/><use xlink:href="#11" y="13.026"/><use xlink:href="#12" y="15.197"/><use xlink:href="#13" y="17.368"/><use xlink:href="#14" y="19.539"/><use xlink:href="#15" y="21.71"/><use xlink:href="#16" y="23.881"/><use xlink:href="#17" y="26.052"/><use xlink:href="#18" y="28.223"/><use xlink:href="#19" y="30.394"/><use xlink:href="#20" y="32.565"/><use xlink:href="#21" y="34.736"/><use xlink:href="#22" y="36.907"/></svg><svg x="7900"><use xlink:href="#a"/><use xlink:href="#b" x="35.996" y="39.053"/><use xlink:href="#5"/><use xlink:href="#6" y="2.171"/><use xlink:href="#7" y="4.342"/><use xlink:href="#8" y="6.513"/><use xlink:href="#9" y="8.684"/><use xlink:href="#10" y="10.855"/><use xlink:href="#11" y="13.026"/><use xlink:href="#12" y="15.197"/><use xlink:href="#13" y="17.368"/><use xlink:href="#14" y="19.539"/><use xlink:href="#15" y="21.71"/><use xlink:href="#16" y="23.881"/><use xlink:href="#17" y="26.052"/><use xlink:href="#18" y="28.223"/><use xlink:href="#19" y="30.394"/><use xlink:href="#20" y="32.565"/><use xlink:href="#21" y="34.736"/><use xlink:href="#22" y="36.907"/></svg><svg x="8000"><use xlink:href="#a"/><use xlink:href="#b" x="35.996" y="39.053"/><use xlink:href="#5"/><use xlink:href="#6" y="2.171"/><use xlink:href="#7" y="4.342"/><use xlink:href="#8" y="6.513"/><use xlink:href="#9" y="8.684"/><use xlink:href="#10" y="10.855"/><use xlink:href="#11" y="13.026"/><use xlink:href="#12" y="15.197"/><use xlink:href="#13" y="17.368"/><use xlink:href="#14" y="19.539"/><use xlink:href="#15" y="21.71"/><use xlink:href="#16" y="23.881"/><use xlink:href="#17" y="26.052"/><use xlink:href="#18" y="28.223"/><use xlink:href="#19" y="30.394"/><use xlink:href="#20" y="32.565"/><use xlink:href="#21" y="34.736"/><use xlink:href="#22" y="36.907"/></svg><svg x="8100"><use xlink:href="#a"/><use xlink:href="#b" x="35.996" y="39.053"/><use xlink:href="#5"/><use xlink:href="#6" y="2.171"/><use xlink:href="#7" y="4.342"/><use xlink:href="#8" y="6.513"/><use xlink:href="#9" y="8.684"/><use xlink:href="#10" y="10.855"/><use xlink:href="#11" y="13.026"/><use xlink:href="#12" y="15.197"/><use xlink:href="#13" y="17.368"/><use xlink:href="#14" y="19.539"/><use xlink:href="#15" y="21.71"/><use xlink:href="#16" y="23.881"/><use xlink:href="#17" y="26.052"/><use xlink:href="#18" y="28.223"/><use xlink:href="#19" y="30.394"/><use xlink:href="#20" y="32.565"/><use xlink:href="#21" y="34.736"/><use xlink:href="#22" y="36.907"/></svg><svg x="8200"><use xlink:href="#a"/><use xlink:href="#b" x="35.996" y="39.053"/><use xlink:href="#5"/><use xlink:href="#6" y="2.171"/><use xlink:href="#7" y="4.342"/><use xlink:href="#8" y="6.513"/><use xlink:href="#9" y="8.684"/><use xlink:href="#10" y="10.855"/><use xlink:href="#11" y="13.026"/><use xlink:href="#12" y="15.197"/><use xlink:href="#13" y="17.368"/><use xlink:href="#14" y="19.539"/><use xlink:href="#15" y="21.71"/><use xlink:href="#16" y="23.881"/><use xlink:href="#17" y="26.052"/><use xlink:href="#18" y="28.223"/><use xlink:href="#19" y="30.394"/><use xlink:href="#20" y="32.565"/><use xlink:href="#21" y="34.736"/><use xlink:href="#22" y="36.907"/></svg><svg x="8300"><use xlink:href="#a"/><use xlink:href="#b" x="35.996" y="39.053"/><use xlink:href="#5"/><use xlink:href="#6" y="2.171"/><use xlink:href="#7" y="4.342"/><use xlink:href="#8" y="6.513"/><use xlink:href="#9" y="8.684"/><use xlink:href="#10" y="10.855"/><use xlink:href="#11" y="13.026"/><use xlink:href="#12" y="15.197"/><use xlink:href="#13" y="17.368"/><use xlink:href="#14" y="19.539"/><use xlink:href="#15" y="21.71"/><use xlink:href="#16" y="23.881"/><use xlink:href="#17" y="26.052"/><use xlink:href="#18" y="28.223"/><use xlink:href="#19" y="30.394"/><use xlink:href="#20" y="32.565"/><use xlink:href="#21" y="34.736"/><use xlink:href="#22" y="36.907"/></svg><svg x="8400"><use xlink:href="#a"/><use xlink:href="#b" x="35.996" y="39.053"/><use xlink:href="#5"/><use xlink:href="#6" y="2.171"/><use xlink:href="#7" y="4.342"/><use xlink:href="#8" y="6.513"/><use xlink:href="#9" y="8.684"/><use xlink:href="#10" y="10.855"/><use xlink:href="#11" y="13.026"/><use xlink:href="#12" y="15.197"/><use xlink:href="#13" y="17.368"/><use xlink:href="#14" y="19.539"/><use xlink:href="#15" y="21.71"/><use xlink:href="#16" y="23.881"/><use xlink:href="#17" y="26.052"/><use xlink:href="#18" y="28.223"/><use xlink:href="#19" y="30.394"/><use xlink:href="#20" y="32.565"/><use xlink:href="#21" y="34.736"/><use xlink:href="#22" y="36.907"/></svg><svg x="8500"><use xlink:href="#a"/><use xlink:href="#b" x="35.996" y="39.053"/><use xlink:href="#5"/><use xlink:href="#6" y="2.171"/><use xlink:href="#7" y="4.342"/><use xlink:href="#8" y="6.513"/><use xlink:href="#9" y="8.684"/><use xlink:href="#10" y="10.855"/><use xlink:href="#11" y="13.026"/><use xlink:href="#12" y="15.197"/><use xlink:href="#13" y="17.368"/><use xlink:href="#14" y="19.539"/><use xlink:href="#15" y="21.71"/><use xlink:href="#16" y="23.881"/><use xlink:href="#17" y="26.052"/><use xlink:href="#18" y="28.223"/><use xlink:href="#19" y="30.394"/><use xlink:href="#20" y="32.565"/><use xlink:href="#21" y="34.736"/><use xlink:href="#22" y="36.907"/></svg><svg x="8600"><use xlink:href="#a"/><use xlink:href="#b" x="35.996" y="39.053"/><use xlink:href="#5"/><use xlink:href="#6" y="2.171"/><use xlink:href="#7" y="4.342"/><use xlink:href="#8" y="6.513"/><use xlink:href="#9" y="8.684"/><use xlink:href="#10" y="10.855"/><use xlink:href="#11" y="13.026"/><use xlink:href="#12" y="15.197"/><use xlink:href="#13" y="17.368"/><use xlink:href="#14" y="19.539"/><use xlink:href="#15" y="21.71"/><use xlink:href="#16" y="23.881"/><use xlink:href="#17" y="26.052"/><use xlink:href="#18" y="28.223"/><use xlink:href="#19" y="30.394"/><use xlink:href="#20" y="32.565"/><use xlink:href="#21" y="34.736"/><use xlink:href="#22" y="36.907"/></svg><svg x="8700"><use xlink:href="#a"/><use xlink:href="#b" x="35.996" y="39.053"/><use xlink:href="#5"/><use xlink:href="#6" y="2.171"/><use xlink:href="#7" y="4.342"/><use xlink:href="#8" y="6.513"/><use xlink:href="#9" y="8.684"/><use xlink:href="#10" y="10.855"/><use xlink:href="#11" y="13.026"/><use xlink:href="#12" y="15.197"/><use xlink:href="#13" y="17.368"/><use xlink:href="#14" y="19.539"/><use xlink:href="#15" y="21.71"/><use xlink:href="#16" y="23.881"/><use xlink:href="#17" y="26.052"/><use xlink:href="#18" y="28.223"/><use xlink:href="#19" y="30.394"/><use xlink:href="#20" y="32.565"/><use xlink:href="#21" y="34.736"/><use xlink:href="#22" y="36.907"/></svg></svg></g></g></svg></svg>