<svg xmlns="http://www.w3.org/2000/svg" xmlns:xlink="http://www.w3.org/1999/xlink" width="1040" height="711.3"><rect width="1040" height="711.3" rx="5" ry="5" class="a"/><svg y="0%" x="0%"><circle cx="20" cy="20" r="6" fill="#ff5f58"/><circle cx="40" cy="20" r="6" fill="#ffbd2e"/><circle cx="60" cy="20" r="6" fill="#18c132"/></svg><svg height="651.3" viewBox="0 0 100 65.13" width="1000" x="15" xmlns="http://www.w3.org/2000/svg" xmlns:xlink="http://www.w3.org/1999/xlink" y="50"><style>@keyframes m{0%{transform:translateX(0)}1%{transform:translateX(-100px)}2%{transform:translateX(-200px)}3%{transform:translateX(-300px)}4.1%{transform:translateX(-400px)}5.1%{transform:translateX(-500px)}6.1%{transform:translateX(-600px)}7.1%{transform:translateX(-700px)}8.1%{transform:translateX(-800px)}9.2%{transform:translateX(-900px)}10.2%{transform:translateX(-1000px)}11.2%{transform:translateX(-1100px)}12.2%{transform:translateX(-1200px)}13.3%{transform:translateX(-1300px)}14.3%{transform:translateX(-1400px)}15.3%{transform:translateX(-1500px)}16.3%{transform:translateX(-1600px)}17.4%{transform:translateX(-1700px)}18.4%{transform:translateX(-1800px)}19.4%{transform:translateX(-1900px)}20.4%{transform:translateX(-2000px)}21.5%{transform:translateX(-2100px)}22.5%{transform:translateX(-2200px)}23.5%{transform:translateX(-2300px)}24.5%{transform:translateX(-2400px)}25.5%{transform:translateX(-2500px)}26.6%{transform:translateX(-2600px)}27.6%{transform:translateX(-2700px)}28.6%{transform:translateX(-2800px)}29.6%{transform:translateX(-2900px)}30.7%{transform:translateX(-3000px)}31.7%{transform:translateX(-3100px)}32.7%{transform:translateX(-3200px)}33.7%{transform:translateX(-3300px)}34.8%{transform:translateX(-3400px)}35.8%{transform:translateX(-3500px)}36.8%{transform:translateX(-3600px)}37.8%{transform:translateX(-3700px)}38.9%{transform:translateX(-3800px)}39.9%{transform:translateX(-3900px)}40.9%{transform:translateX(-4000px)}41.9%{transform:translateX(-4100px)}42.9%{transform:translateX(-4200px)}44%{transform:translateX(-4300px)}45%{transform:translateX(-4400px)}46%{transform:translateX(-4500px)}47%{transform:translateX(-4600px)}48.1%{transform:translateX(-4700px)}49.1%{transform:translateX(-4800px)}50.1%{transform:translateX(-4900px)}51.1%{transform:translateX(-5000px)}52.2%{transform:translateX(-5100px)}53.2%{transform:translateX(-5200px)}54.2%{transform:translateX(-5300px)}55.2%{transform:translateX(-5400px)}56.3%{transform:translateX(-5500px)}57%{transform:translateX(-6800px)}61.3%{transform:translateX(-6900px)}65.6%{transform:translateX(-7000px)}69.9%{transform:translateX(-7100px)}74.2%{transform:translateX(-7200px)}78.5%{transform:translateX(-7300px)}82.8%{transform:translateX(-7400px)}87.1%{transform:translateX(-7500px)}91.4%{transform:translateX(-7600px)}95.7%{transform:translateX(-7700px)}to{transform:translateX(-7900px)}}.a{fill:#282d35}.f,.g,.h{fill:#b9c0cb;white-space:pre}.g,.h{font-weight:700}.h{fill:#66c2cd}.i{fill:gold}.j{white-space:pre}</style><g font-family="Monaco,Consolas,Menlo,'Bitstream Vera Sans Mono','Powerline Symbols',monospace" font-size="1.67"><defs><symbol id="1"><text y="1.67" class="f">$</text><text x="2.004" y="1.67" class="f">neuroprivacy</text></symbol><symbol id="2"><text y="1.67" class="f">$</text><text x="2.004" y="1.67" class="f">neuroprivacy</text><text x="15.03" y="1.67" class="f">diff</text></symbol><symbol id="3"><text y="1.67" class="f">$</text><text x="2.004" y="1.67" class="f">neuroprivacy</text><text x="15.03" y="1.67" class="f">diff</text><text x="20.04" y="1.67" class="f">--vendor</text></symbol><symbol id="4"><text y="1.67" class="f">$</text><text x="2.004" y="1.67" class="f">neuroprivacy</text><text x="15.03" y="1.67" class="f">diff</text><text x="20.04" y="1.67" class="f">--vendor</text><text x="29.058" y="1.67" class="f">vendor-d</text></symbol><symbol id="5"><text y="1.67" class="f">$</text><text x="2.004" y="1.67" class="f">neuroprivacy</text><text x="15.03" y="1.67" class="f">diff</text><text x="20.04" y="1.67" class="f">--vendor</text><text x="29.058" y="1.67" class="f">vendor-d</text><text x="38.076" y="1.67" class="f">--since</text></symbol><symbol id="6"><text y="1.67" class="f">$</text><text x="2.004" y="1.67" class="f">neuroprivacy</text><text x="15.03" y="1.67" class="f">diff</text><text x="20.04" y="1.67" class="f">--vendor</text><text x="29.058" y="1.67" class="f">vendor-d</text><text x="38.076" y="1.67" class="f">--since</text><text x="46.092" y="1.67" class="f">2025-01-01</text></symbol><symbol id="7"><text y="1.67" class="g">neuroprivacy</text><text x="13.026" y="1.67" class="g">diff</text></symbol><symbol id="8"><text x="17.034" y="1.67" class="f">vendor:</text><text x="25.05" y="1.67" class="f">vendor-d</text><text x="35.07" y="1.67" class="f">since:</text><text x="42.084" y="1.67" class="h">2025</text><text x="46.092" y="1.67" class="f">-</text><text x="47.094" y="1.67" class="h">01</text><text x="49.098" y="1.67" class="f">-</text><text x="50.1" y="1.67" class="h">01</text></symbol><symbol id="9"><text x="54.108" y="1.67" class="h">2025</text><text x="58.116" y="1.67" class="f">-</text><text x="59.118" y="1.67" class="h">01</text><text x="61.122" y="1.67" class="f">-</text><text x="62.124" y="1.67" class="h">15</text><text x="66.132" y="1.67" class="f">vendor-d-</text><text x="75.15" y="1.67" class="h">2025</text><text x="79.158" y="1.67" class="f">-</text><text x="80.16" y="1.67" class="h">01.</text><text x="83.166" y="1.67" class="f">html</text></symbol><symbol id="10"><text x="89.178" y="1.67" class="h">2025</text><text x="93.186" y="1.67" class="f">-</text><text x="94.188" y="1.67" class="h">06</text><text x="96.192" y="1.67" class="f">-</text><text x="97.194" y="1.67" class="h">15</text></symbol><symbol id="11"><text x="1.002" y="1.67" class="f">vendor-d-</text><text x="10.02" y="1.67" class="h">2025</text><text x="14.028" y="1.67" class="f">-</text><text x="15.03" y="1.67" class="h">06.</text><text x="18.036" y="1.67" class="f">html</text></symbol><symbol id="12"><text x="48.096" y="1.67" class="f">Removed</text><text x="56.112" y="1.67" class="f">or</text><text x="59.118" y="1.67" class="f">changed</text><text x="67.134" y="1.67" class="f">clauses</text></symbol><symbol id="13"><text x="1.002" y="1.67" class="f">┏━━━━━━━━━━━━━━━━━━━┳━━━━━━━━━━━━━━━━━━━┳━━━━━━━━━━━━━━━━━━━━┳━━━━━━━━━━━━━━━━┓</text></symbol><symbol id="14"><text x="80.16" y="1.67" class="f">┃</text><text x="82.164" y="1.67" class="g">field</text></symbol><symbol id="15"><text y="1.67" class="f">┃</text><text x="2.004" y="1.67" class="g">before</text><text x="20.04" y="1.67" class="f">┃</text><text x="22.044" y="1.67" class="g">after</text><text x="41.082" y="1.67" class="f">┃</text><text x="43.086" y="1.67" class="g">change</text><text x="58.116" y="1.67" class="f">┃</text></symbol><symbol id="16"><text x="59.118" y="1.67" class="f">┡━━━━━━━━━━━━━━━━━━━╇━━━━━━━━━━━━━━━━━━━╇</text></symbol><symbol id="17"><text y="1.67" class="f">━━━━━━━━━━━━━━━━━━━━╇━━━━━━━━━━━━━━━━┩</text></symbol><symbol id="18"><path class="i" d="M38.076 0h62v2.171h-62z"/><text x="38.076" y="1.67" class="j">│ discloses_sharing │ true (2025-01-15) │ false (2025-06-15) │</text></symbol><symbol id="19"><path class="i" d="M0 0h17v2.171H0z"/><text y="1.67" class="j">removed clause │</text></symbol><symbol id="20"><text x="17.034" y="1.67" class="f">└───────────────────┴───────────────────┴────────────────────┴────────────────┘</text></symbol><symbol id="21"><text x="96.192" y="1.67" class="f">Obse</text></symbol><symbol id="22"><text y="1.67" class="f">rvations</text><text x="9.018" y="1.67" class="f">only.</text><text x="15.03" y="1.67" class="f">This</text><text x="20.04" y="1.67" class="f">output</text><text x="27.054" y="1.67" class="f">is</text><text x="30.06" y="1.67" class="f">not</text><text x="34.068" y="1.67" class="f">a</text><text x="36.072" y="1.67" class="f">legal</text><text x="42.084" y="1.67" class="f">conclusion,</text><text x="54.108" y="1.67" class="f">not</text><text x="58.116" y="1.67" class="f">legal</text><text x="64.128" y="1.67" class="f">advice,</text><text x="72.144" y="1.67" class="f">and</text><text x="76.152" y="1.67" class="f">not</text><text x="80.16" y="1.67" class="f">a</text><text x="82.164" y="1.67" class="f">compliance</text></symbol><symbol id="23"><text x="93.186" y="1.67" class="f">certifi</text></symbol><symbol id="24"><text y="1.67" class="f">cation.</text><text x="8.016" y="1.67" class="f">Public</text><text x="15.03" y="1.67" class="f">policies</text><text x="24.048" y="1.67" class="f">only;</text><text x="30.06" y="1.67" class="f">no</text><text x="33.066" y="1.67" class="f">circumvention.</text></symbol><symbol id="a"><path fill="transparent" d="M0 0h100v31H0z"/></symbol><symbol id="b"><path fill="#6f7683" d="M0 0h1.102v2.171H0z"/></symbol></defs><path class="a" d="M0 0h100v65.13H0z"/><g style="animation-duration:8.1414s;animation-iteration-count:infinite;animation-name:m;animation-timing-function:steps(1,end)"><svg width="8000"><svg><use xlink:href="#a"/><use xlink:href="#b" x="-.004"/></svg><svg x="100"><use xlink:href="#a"/><use xlink:href="#b" x="1.996"/><text y="1.67" class="f">$</text></svg><svg x="200"><use xlink:href="#a"/><use xlink:href="#b" x="2.996"/><text y="1.67" class="f">$</text><text x="2.004" y="1.67" class="f">n</text></svg><svg x="300"><use xlink:href="#a"/><use xlink:href="#b" x="3.996"/><text y="1.67" class="f">$</text><text x="2.004" y="1.67" class="f">ne</text></svg><svg x="400"><use xlink:href="#a"/><use xlink:href="#b" x="4.996"/><text y="1.67" class="f">$</text><text x="2.004" y="1.67" class="f">neu</text></svg><svg x="500"><use xlink:href="#a"/><use xlink:href="#b" x="5.996"/><text y="1.67" class="f">$</text><text x="2.004" y="1.67" class="f">neur</text></svg><svg x="600"><use xlink:href="#a"/><use xlink:href="#b" x="6.996"/><text y="1.67" class="f">$</text><text x="2.004" y="1.67" class="f">neuro</text></svg><svg x="700"><use xlink:href="#a"/><use xlink:href="#b" x="7.996"/><text y="1.67" class="f">$</text><text x="2.004" y="1.67" class="f">neurop</text></svg><svg x="800"><use xlink:href="#a"/><use xlink:href="#b" x="8.996"/><text y="1.67" class="f">$</text><text x="2.004" y="1.67" class="f">neuropr</text></svg><svg x="900"><use xlink:href="#a"/><use xlink:href="#b" x="9.996"/><text y="1.67" class="f">$</text><text x="2.004" y="1.67" class="f">neuropri</text></svg><svg x="1000"><use xlink:href="#a"/><use xlink:href="#b" x="10.996"/><text y="1.67" class="f">$</text><text x="2.004" y="1.67" class="f">neuropriv</text></svg><svg x="1100"><use xlink:href="#a"/><use xlink:href="#b" x="11.996"/><text y="1.67" class="f">$</text><text x="2.004" y="1.67" class="f">neuropriva</text></svg><svg x="1200"><use xlink:href="#a"/><use xlink:href="#b" x="12.996"/><text y="1.67" class="f">$</text><text x="2.004" y="1.67" class="f">neuroprivac</text></svg><svg x="1300"><use xlink:href="#a"/><use xlink:href="#b" x="13.996"/><use xlink:href="#1"/></svg><svg x="1400"><use xlink:href="#a"/><use xlink:href="#b" x="14.996"/><use xlink:href="#1"/></svg><svg x="1500"><use xlink:href="#a"/><use xlink:href="#b" x="15.996"/><text y="1.67" class="f">$</text><text x="2.004" y="1.67" class="f">neuroprivacy</text><text x="15.03" y="1.67" class="f">d</text></svg><svg x="1600"><use xlink:href="#a"/><use xlink:href="#b" x="16.996"/><text y="1.67" class="f">$</text><text x="2.004" y="1.67" class="f">neuroprivacy</text><text x="15.03" y="1.67" class="f">di</text></svg><svg x="1700"><use xlink:href="#a"/><use xlink:href="#b" x="17.996"/><text y="1.67" class="f">$</text><text x="2.004" y="1.67" class="f">neuroprivacy</text><text x="15.03" y="1.67" class="f">dif</text></svg><svg x="1800"><use xlink:href="#a"/><use xlink:href="#b" x="18.996"/><use xlink:href="#2"/></svg><svg x="1900"><use xlink:href="#a"/><use xlink:href="#b" x="19.996"/><use xlink:href="#2"/></svg><svg x="2000"><use xlink:href="#a"/><use xlink:href="#b" x="20.996"/><text y="1.67" class="f">$</text><text x="2.004" y="1.67" class="f">neuroprivacy</text><text x="15.03" y="1.67" class="f">diff</text><text x="20.04" y="1.67" class="f">-</text></svg><svg x="2100"><use xlink:href="#a"/><use xlink:href="#b" x="21.996"/><text y="1.67" class="f">$</text><text x="2.004" y="1.67" class="f">neuroprivacy</text><text x="15.03" y="1.67" class="f">diff</text><text x="20.04" y="1.67" class="f">--</text></svg><svg x="2200"><use xlink:href="#a"/><use xlink:href="#b" x="22.996"/><text y="1.67" class="f">$</text><text x="2.004" y="1.67" class="f">neuroprivacy</text><text x="15.03" y="1.67" class="f">diff</text><text x="20.04" y="1.67" class="f">--v</text></svg><svg x="2300"><use xlink:href="#a"/><use xlink:href="#b" x="23.996"/><text y="1.67" class="f">$</text><text x="2.004" y="1.67" class="f">neuroprivacy</text><text x="15.03" y="1.67" class="f">diff</text><text x="20.04" y="1.67" class="f">--ve</text></svg><svg x="2400"><use xlink:href="#a"/><use xlink:href="#b" x="24.996"/><text y="1.67" class="f">$</text><text x="2.004" y="1.67" class="f">neuroprivacy</text><text x="15.03" y="1.67" class="f">diff</text><text x="20.04" y="1.67" class="f">--ven</text></svg><svg x="2500"><use xlink:href="#a"/><use xlink:href="#b" x="25.996"/><text y="1.67" class="f">$</text><text x="2.004" y="1.67" class="f">neuroprivacy</text><text x="15.03" y="1.67" class="f">diff</text><text x="20.04" y="1.67" class="f">--vend</text></svg><svg x="2600"><use xlink:href="#a"/><use xlink:href="#b" x="26.996"/><text y="1.67" class="f">$</text><text x="2.004" y="1.67" class="f">neuroprivacy</text><text x="15.03" y="1.67" class="f">diff</text><text x="20.04" y="1.67" class="f">--vendo</text></svg><svg x="2700"><use xlink:href="#a"/><use xlink:href="#b" x="27.996"/><use xlink:href="#3"/></svg><svg x="2800"><use xlink:href="#a"/><use xlink:href="#b" x="28.996"/><use xlink:href="#3"/></svg><svg x="2900"><use xlink:href="#a"/><use xlink:href="#b" x="29.996"/><text y="1.67" class="f">$</text><text x="2.004" y="1.67" class="f">neuroprivacy</text><text x="15.03" y="1.67" class="f">diff</text><text x="20.04" y="1.67" class="f">--vendor</text><text x="29.058" y="1.67" class="f">v</text></svg><svg x="3000"><use xlink:href="#a"/><use xlink:href="#b" x="30.996"/><text y="1.67" class="f">$</text><text x="2.004" y="1.67" class="f">neuroprivacy</text><text x="15.03" y="1.67" class="f">diff</text><text x="20.04" y="1.67" class="f">--vendor</text><text x="29.058" y="1.67" class="f">ve</text></svg><svg x="3100"><use xlink:href="#a"/><use xlink:href="#b" x="31.996"/><text y="1.67" class="f">$</text><text x="2.004" y="1.67" class="f">neuroprivacy</text><text x="15.03" y="1.67" class="f">diff</text><text x="20.04" y="1.67" class="f">--vendor</text><text x="29.058" y="1.67" class="f">ven</text></svg><svg x="3200"><use xlink:href="#a"/><use xlink:href="#b" x="32.996"/><text y="1.67" class="f">$</text><text x="2.004" y="1.67" class="f">neuroprivacy</text><text x="15.03" y="1.67" class="f">diff</text><text x="20.04" y="1.67" class="f">--vendor</text><text x="29.058" y="1.67" class="f">vend</text></svg><svg x="3300"><use xlink:href="#a"/><use xlink:href="#b" x="33.996"/><text y="1.67" class="f">$</text><text x="2.004" y="1.67" class="f">neuroprivacy</text><text x="15.03" y="1.67" class="f">diff</text><text x="20.04" y="1.67" class="f">--vendor</text><text x="29.058" y="1.67" class="f">vendo</text></svg><svg x="3400"><use xlink:href="#a"/><use xlink:href="#b" x="34.996"/><text y="1.67" class="f">$</text><text x="2.004" y="1.67" class="f">neuroprivacy</text><text x="15.03" y="1.67" class="f">diff</text><text x="20.04" y="1.67" class="f">--vendor</text><text x="29.058" y="1.67" class="f">vendor</text></svg><svg x="3500"><use xlink:href="#a"/><use xlink:href="#b" x="35.996"/><text y="1.67" class="f">$</text><text x="2.004" y="1.67" class="f">neuroprivacy</text><text x="15.03" y="1.67" class="f">diff</text><text x="20.04" y="1.67" class="f">--vendor</text><text x="29.058" y="1.67" class="f">vendor-</text></svg><svg x="3600"><use xlink:href="#a"/><use xlink:href="#b" x="36.996"/><use xlink:href="#4"/></svg><svg x="3700"><use xlink:href="#a"/><use xlink:href="#b" x="37.996"/><use xlink:href="#4"/></svg><svg x="3800"><use xlink:href="#a"/><use xlink:href="#b" x="38.996"/><text y="1.67" class="f">$</text><text x="2.004" y="1.67" class="f">neuroprivacy</text><text x="15.03" y="1.67" class="f">diff</text><text x="20.04" y="1.67" class="f">--vendor</text><text x="29.058" y="1.67" class="f">vendor-d</text><text x="38.076" y="1.67" class="f">-</text></svg><svg x="3900"><use xlink:href="#a"/><use xlink:href="#b" x="39.996"/><text y="1.67" class="f">$</text><text x="2.004" y="1.67" class="f">neuroprivacy</text><text x="15.03" y="1.67" class="f">diff</text><text x="20.04" y="1.67" class="f">--vendor</text><text x="29.058" y="1.67" class="f">vendor-d</text><text x="38.076" y="1.67" class="f">--</text></svg><svg x="4000"><use xlink:href="#a"/><use xlink:href="#b" x="40.996"/><text y="1.67" class="f">$</text><text x="2.004" y="1.67" class="f">neuroprivacy</text><text x="15.03" y="1.67" class="f">diff</text><text x="20.04" y="1.67" class="f">--vendor</text><text x="29.058" y="1.67" class="f">vendor-d</text><text x="38.076" y="1.67" class="f">--s</text></svg><svg x="4100"><use xlink:href="#a"/><use xlink:href="#b" x="41.996"/><text y="1.67" class="f">$</text><text x="2.004" y="1.67" class="f">neuroprivacy</text><text x="15.03" y="1.67" class="f">diff</text><text x="20.04" y="1.67" class="f">--vendor</text><text x="29.058" y="1.67" class="f">vendor-d</text><text x="38.076" y="1.67" class="f">--si</text></svg><svg x="4200"><use xlink:href="#a"/><use xlink:href="#b" x="42.996"/><text y="1.67" class="f">$</text><text x="2.004" y="1.67" class="f">neuroprivacy</text><text x="15.03" y="1.67" class="f">diff</text><text x="20.04" y="1.67" class="f">--vendor</text><text x="29.058" y="1.67" class="f">vendor-d</text><text x="38.076" y="1.67" class="f">--sin</text></svg><svg x="4300"><use xlink:href="#a"/><use xlink:href="#b" x="43.996"/><text y="1.67" class="f">$</text><text x="2.004" y="1.67" class="f">neuroprivacy</text><text x="15.03" y="1.67" class="f">diff</text><text x="20.04" y="1.67" class="f">--vendor</text><text x="29.058" y="1.67" class="f">vendor-d</text><text x="38.076" y="1.67" class="f">--sinc</text></svg><svg x="4400"><use xlink:href="#a"/><use xlink:href="#b" x="44.996"/><use xlink:href="#5"/></svg><svg x="4500"><use xlink:href="#a"/><use xlink:href="#b" x="45.996"/><use xlink:href="#5"/></svg><svg x="4600"><use xlink:href="#a"/><use xlink:href="#b" x="46.996"/><text y="1.67" class="f">$</text><text x="2.004" y="1.67" class="f">neuroprivacy</text><text x="15.03" y="1.67" class="f">diff</text><text x="20.04" y="1.67" class="f">--vendor</text><text x="29.058" y="1.67" class="f">vendor-d</text><text x="38.076" y="1.67" class="f">--since</text><text x="46.092" y="1.67" class="f">2</text></svg><svg x="4700"><use xlink:href="#a"/><use xlink:href="#b" x="47.996"/><text y="1.67" class="f">$</text><text x="2.004" y="1.67" class="f">neuroprivacy</text><text x="15.03" y="1.67" class="f">diff</text><text x="20.04" y="1.67" class="f">--vendor</text><text x="29.058" y="1.67" class="f">vendor-d</text><text x="38.076" y="1.67" class="f">--since</text><text x="46.092" y="1.67" class="f">20</text></svg><svg x="4800"><use xlink:href="#a"/><use xlink:href="#b" x="48.996"/><text y="1.67" class="f">$</text><text x="2.004" y="1.67" class="f">neuroprivacy</text><text x="15.03" y="1.67" class="f">diff</text><text x="20.04" y="1.67" class="f">--vendor</text><text x="29.058" y="1.67" class="f">vendor-d</text><text x="38.076" y="1.67" class="f">--since</text><text x="46.092" y="1.67" class="f">202</text></svg><svg x="4900"><use xlink:href="#a"/><use xlink:href="#b" x="49.996"/><text y="1.67" class="f">$</text><text x="2.004" y="1.67" class="f">neuroprivacy</text><text x="15.03" y="1.67" class="f">diff</text><text x="20.04" y="1.67" class="f">--vendor</text><text x="29.058" y="1.67" class="f">vendor-d</text><text x="38.076" y="1.67" class="f">--since</text><text x="46.092" y="1.67" class="f">2025</text></svg><svg x="5000"><use xlink:href="#a"/><use xlink:href="#b" x="50.996"/><text y="1.67" class="f">$</text><text x="2.004" y="1.67" class="f">neuroprivacy</text><text x="15.03" y="1.67" class="f">diff</text><text x="20.04" y="1.67" class="f">--vendor</text><text x="29.058" y="1.67" class="f">vendor-d</text><text x="38.076" y="1.67" class="f">--since</text><text x="46.092" y="1.67" class="f">2025-</text></svg><svg x="5100"><use xlink:href="#a"/><use xlink:href="#b" x="51.996"/><text y="1.67" class="f">$</text><text x="2.004" y="1.67" class="f">neuroprivacy</text><text x="15.03" y="1.67" class="f">diff</text><text x="20.04" y="1.67" class="f">--vendor</text><text x="29.058" y="1.67" class="f">vendor-d</text><text x="38.076" y="1.67" class="f">--since</text><text x="46.092" y="1.67" class="f">2025-0</text></svg><svg x="5200"><use xlink:href="#a"/><use xlink:href="#b" x="52.996"/><text y="1.67" class="f">$</text><text x="2.004" y="1.67" class="f">neuroprivacy</text><text x="15.03" y="1.67" class="f">diff</text><text x="20.04" y="1.67" class="f">--vendor</text><text x="29.058" y="1.67" class="f">vendor-d</text><text x="38.076" y="1.67" class="f">--since</text><text x="46.092" y="1.67" class="f">2025-01</text></svg><svg x="5300"><use xlink:href="#a"/><use xlink:href="#b" x="53.996"/><text y="1.67" class="f">$</text><text x="2.004" y="1.67" class="f">neuroprivacy</text><text x="15.03" y="1.67" class="f">diff</text><text x="20.04" y="1.67" class="f">--vendor</text><text x="29.058" y="1.67" class="f">vendor-d</text><text x="38.076" y="1.67" class="f">--since</text><text x="46.092" y="1.67" class="f">2025-01-</text></svg><svg x="5400"><use xlink:href="#a"/><use xlink:href="#b" x="54.996"/><text y="1.67" class="f">$</text><text x="2.004" y="1.67" class="f">neuroprivacy</text><text x="15.03" y="1.67" class="f">diff</text><text x="20.04" y="1.67" class="f">--vendor</text><text x="29.058" y="1.67" class="f">vendor-d</text><text x="38.076" y="1.67" class="f">--since</text><text x="46.092" y="1.67" class="f">2025-01-0</text></svg><svg x="5500"><use xlink:href="#a"/><use xlink:href="#b" x="55.996"/><use xlink:href="#6"/></svg><svg x="5600"><use xlink:href="#a"/><use xlink:href="#b" x="-.004" y="2.146"/><use xlink:href="#6"/></svg><svg x="5700"><use xlink:href="#a"/><use xlink:href="#b" x="16.996" y="4.317"/><use xlink:href="#6"/><use xlink:href="#7" y="2.171"/></svg><svg x="5800"><use xlink:href="#a"/><use xlink:href="#b" x="51.996" y="6.488"/><use xlink:href="#6"/><use xlink:href="#7" y="2.171"/><use xlink:href="#8" y="4.342"/></svg><svg x="5900"><use xlink:href="#a"/><use xlink:href="#b" x="86.996" y="8.659"/><use xlink:href="#6"/><use xlink:href="#7" y="2.171"/><use xlink:href="#8" y="4.342"/><use xlink:href="#9" y="6.513"/></svg><svg x="6000"><use xlink:href="#a"/><use xlink:href="#b" x="21.996" y="13.001"/><use xlink:href="#6"/><use xlink:href="#7" y="2.171"/><use xlink:href="#8" y="4.342"/><use xlink:href="#9" y="6.513"/><use xlink:href="#10" y="8.684"/><use xlink:href="#11" y="10.855"/></svg><svg x="6100"><use xlink:href="#a"/><use xlink:href="#b" x=".996" y="17.343"/><use xlink:href="#6"/><use xlink:href="#7" y="2.171"/><use xlink:href="#8" y="4.342"/><use xlink:href="#9" y="6.513"/><use xlink:href="#10" y="8.684"/><use xlink:href="#11" y="10.855"/><use xlink:href="#12" y="13.026"/></svg><svg x="6200"><use xlink:href="#a"/><use xlink:href="#b" x="79.996" y="19.514"/><use xlink:href="#6"/><use xlink:href="#7" y="2.171"/><use xlink:href="#8" y="4.342"/><use xlink:href="#9" y="6.513"/><use xlink:href="#10" y="8.684"/><use xlink:href="#11" y="10.855"/><use xlink:href="#12" y="13.026"/><use xlink:href="#13" y="17.368"/></svg><svg x="6300"><use xlink:href="#a"/><use xlink:href="#b" x="58.996" y="23.856"/><use xlink:href="#6"/><use xlink:href="#7" y="2.171"/><use xlink:href="#8" y="4.342"/><use xlink:href="#9" y="6.513"/><use xlink:href="#10" y="8.684"/><use xlink:href="#11" y="10.855"/><use xlink:href="#12" y="13.026"/><use xlink:href="#13" y="17.368"/><use xlink:href="#14" y="19.539"/><use xlink:href="#15" y="21.71"/></svg><svg x="6400"><use xlink:href="#a"/><use xlink:href="#b" x="37.996" y="28.198"/><use xlink:href="#6"/><use xlink:href="#7" y="2.171"/><use xlink:href="#8" y="4.342"/><use xlink:href="#9" y="6.513"/><use xlink:href="#10" y="8.684"/><use xlink:href="#11" y="10.855"/><use xlink:href="#12" y="13.026"/><use xlink:href="#13" y="17.368"/><use xlink:href="#14" y="19.539"/><use xlink:href="#15" y="21.71"/><use xlink:href="#16" y="23.881"/><use xlink:href="#17" y="26.052"/></svg><svg x="6500"><use xlink:href="#a"/><use xlink:href="#b" x="16.996" y="32.54"/><use xlink:href="#6"/><use xlink:href="#7" y="2.171"/><use xlink:href="#8" y="4.342"/><use xlink:href="#9" y="6.513"/><use xlink:href="#10" y="8.684"/><use xlink:href="#11" y="10.855"/><use xlink:href="#12" y="13.026"/><use xlink:href="#13" y="17.368"/><use xlink:href="#14" y="19.539"/><use xlink:href="#15" y="21.71"/><use xlink:href="#16" y="23.881"/><use xlink:href="#17" y="26.052"/><use xlink:href="#18" y="28.223"/><use xlink:href="#19" y="30.394"/></svg><svg x="6600"><use xlink:href="#a"/><use xlink:href="#b" x="95.996" y="34.711"/><use xlink:href="#6"/><use xlink:href="#7" y="2.171"/><use xlink:href="#8" y="4.342"/><use xlink:href="#9" y="6.513"/><use xlink:href="#10" y="8.684"/><use xlink:href="#11" y="10.855"/><use xlink:href="#12" y="13.026"/><use xlink:href="#13" y="17.368"/><use xlink:href="#14" y="19.539"/><use xlink:href="#15" y="21.71"/><use xlink:href="#16" y="23.881"/><use xlink:href="#17" y="26.052"/><use xlink:href="#18" y="28.223"/><use xlink:href="#19" y="30.394"/><use xlink:href="#20" y="32.565"/></svg><svg x="6700"><use xlink:href="#a"/><use xlink:href="#b" x="92.996" y="39.053"/><use xlink:href="#6"/><use xlink:href="#7" y="2.171"/><use xlink:href="#8" y="4.342"/><use xlink:href="#9" y="6.513"/><use xlink:href="#10" y="8.684"/><use xlink:href="#11" y="10.855"/><use xlink:href="#12" y="13.026"/><use xlink:href="#13" y="17.368"/><use xlink:href="#14" y="19.539"/><use xlink:href="#15" y="21.71"/><use xlink:href="#16" y="23.881"/><use xlink:href="#17" y="26.052"/><use xlink:href="#18" y="28.223"/><use xlink:href="#19" y="30.394"/><use xlink:href="#20" y="32.565"/><use xlink:href="#21" y="34.736"/><use xlink:href="#22" y="36.907"/></svg><svg x="6800"><use xlink:href="#a"/><use xlink:href="#b" x="46.996" y="43.395"/><use xlink:href="#6"/><use xlink:href="#7" y="2.171"/><use xlink:href="#8" y="4.342"/><use xlink:href="#9" y="6.513"/><use xlink:href="#10" y="8.684"/><use xlink:href="#11" y="10.855"/><use xlink:href="#12" y="13.026"/><use xlink:href="#13" y="17.368"/><use xlink:href="#14" y="19.539"/><use xlink:href="#15" y="21.71"/><use xlink:href="#16" y="23.881"/><use xlink:href="#17" y="26.052"/><use xlink:href="#18" y="28.223"/><use xlink:href="#19" y="30.394"/><use xlink:href="#20" y="32.565"/><use xlink:href="#21" y="34.736"/><use xlink:href="#22" y="36.907"/><use xlink:href="#23" y="39.078"/><use xlink:href="#24" y="41.249"/></svg><svg x="6900"><use xlink:href="#a"/><use xlink:href="#b" x="46.996" y="43.395"/><use xlink:href="#6"/><use xlink:href="#7" y="2.171"/><use xlink:href="#8" y="4.342"/><use xlink:href="#9" y="6.513"/><use xlink:href="#10" y="8.684"/><use xlink:href="#11" y="10.855"/><use xlink:href="#12" y="13.026"/><use xlink:href="#13" y="17.368"/><use xlink:href="#14" y="19.539"/><use xlink:href="#15" y="21.71"/><use xlink:href="#16" y="23.881"/><use xlink:href="#17" y="26.052"/><use xlink:href="#18" y="28.223"/><use xlink:href="#19" y="30.394"/><use xlink:href="#20" y="32.565"/><use xlink:href="#21" y="34.736"/><use xlink:href="#22" y="36.907"/><use xlink:href="#23" y="39.078"/><use xlink:href="#24" y="41.249"/></svg><svg x="7000"><use xlink:href="#a"/><use xlink:href="#b" x="46.996" y="43.395"/><use xlink:href="#6"/><use xlink:href="#7" y="2.171"/><use xlink:href="#8" y="4.342"/><use xlink:href="#9" y="6.513"/><use xlink:href="#10" y="8.684"/><use xlink:href="#11" y="10.855"/><use xlink:href="#12" y="13.026"/><use xlink:href="#13" y="17.368"/><use xlink:href="#14" y="19.539"/><use xlink:href="#15" y="21.71"/><use xlink:href="#16" y="23.881"/><use xlink:href="#17" y="26.052"/><use xlink:href="#18" y="28.223"/><use xlink:href="#19" y="30.394"/><use xlink:href="#20" y="32.565"/><use xlink:href="#21" y="34.736"/><use xlink:href="#22" y="36.907"/><use xlink:href="#23" y="39.078"/><use xlink:href="#24" y="41.249"/></svg><svg x="7100"><use xlink:href="#a"/><use xlink:href="#b" x="46.996" y="43.395"/><use xlink:href="#6"/><use xlink:href="#7" y="2.171"/><use xlink:href="#8" y="4.342"/><use xlink:href="#9" y="6.513"/><use xlink:href="#10" y="8.684"/><use xlink:href="#11" y="10.855"/><use xlink:href="#12" y="13.026"/><use xlink:href="#13" y="17.368"/><use xlink:href="#14" y="19.539"/><use xlink:href="#15" y="21.71"/><use xlink:href="#16" y="23.881"/><use xlink:href="#17" y="26.052"/><use xlink:href="#18" y="28.223"/><use xlink:href="#19" y="30.394"/><use xlink:href="#20" y="32.565"/><use xlink:href="#21" y="34.736"/><use xlink:href="#22" y="36.907"/><use xlink:href="#23" y="39.078"/><use xlink:href="#24" y="41.249"/></svg><svg x="7200"><use xlink:href="#a"/><use xlink:href="#b" x="46.996" y="43.395"/><use xlink:href="#6"/><use xlink:href="#7" y="2.171"/><use xlink:href="#8" y="4.342"/><use xlink:href="#9" y="6.513"/><use xlink:href="#10" y="8.684"/><use xlink:href="#11" y="10.855"/><use xlink:href="#12" y="13.026"/><use xlink:href="#13" y="17.368"/><use xlink:href="#14" y="19.539"/><use xlink:href="#15" y="21.71"/><use xlink:href="#16" y="23.881"/><use xlink:href="#17" y="26.052"/><use xlink:href="#18" y="28.223"/><use xlink:href="#19" y="30.394"/><use xlink:href="#20" y="32.565"/><use xlink:href="#21" y="34.736"/><use xlink:href="#22" y="36.907"/><use xlink:href="#23" y="39.078"/><use xlink:href="#24" y="41.249"/></svg><svg x="7300"><use xlink:href="#a"/><use xlink:href="#b" x="46.996" y="43.395"/><use xlink:href="#6"/><use xlink:href="#7" y="2.171"/><use xlink:href="#8" y="4.342"/><use xlink:href="#9" y="6.513"/><use xlink:href="#10" y="8.684"/><use xlink:href="#11" y="10.855"/><use xlink:href="#12" y="13.026"/><use xlink:href="#13" y="17.368"/><use xlink:href="#14" y="19.539"/><use xlink:href="#15" y="21.71"/><use xlink:href="#16" y="23.881"/><use xlink:href="#17" y="26.052"/><use xlink:href="#18" y="28.223"/><use xlink:href="#19" y="30.394"/><use xlink:href="#20" y="32.565"/><use xlink:href="#21" y="34.736"/><use xlink:href="#22" y="36.907"/><use xlink:href="#23" y="39.078"/><use xlink:href="#24" y="41.249"/></svg><svg x="7400"><use xlink:href="#a"/><use xlink:href="#b" x="46.996" y="43.395"/><use xlink:href="#6"/><use xlink:href="#7" y="2.171"/><use xlink:href="#8" y="4.342"/><use xlink:href="#9" y="6.513"/><use xlink:href="#10" y="8.684"/><use xlink:href="#11" y="10.855"/><use xlink:href="#12" y="13.026"/><use xlink:href="#13" y="17.368"/><use xlink:href="#14" y="19.539"/><use xlink:href="#15" y="21.71"/><use xlink:href="#16" y="23.881"/><use xlink:href="#17" y="26.052"/><use xlink:href="#18" y="28.223"/><use xlink:href="#19" y="30.394"/><use xlink:href="#20" y="32.565"/><use xlink:href="#21" y="34.736"/><use xlink:href="#22" y="36.907"/><use xlink:href="#23" y="39.078"/><use xlink:href="#24" y="41.249"/></svg><svg x="7500"><use xlink:href="#a"/><use xlink:href="#b" x="46.996" y="43.395"/><use xlink:href="#6"/><use xlink:href="#7" y="2.171"/><use xlink:href="#8" y="4.342"/><use xlink:href="#9" y="6.513"/><use xlink:href="#10" y="8.684"/><use xlink:href="#11" y="10.855"/><use xlink:href="#12" y="13.026"/><use xlink:href="#13" y="17.368"/><use xlink:href="#14" y="19.539"/><use xlink:href="#15" y="21.71"/><use xlink:href="#16" y="23.881"/><use xlink:href="#17" y="26.052"/><use xlink:href="#18" y="28.223"/><use xlink:href="#19" y="30.394"/><use xlink:href="#20" y="32.565"/><use xlink:href="#21" y="34.736"/><use xlink:href="#22" y="36.907"/><use xlink:href="#23" y="39.078"/><use xlink:href="#24" y="41.249"/></svg><svg x="7600"><use xlink:href="#a"/><use xlink:href="#b" x="46.996" y="43.395"/><use xlink:href="#6"/><use xlink:href="#7" y="2.171"/><use xlink:href="#8" y="4.342"/><use xlink:href="#9" y="6.513"/><use xlink:href="#10" y="8.684"/><use xlink:href="#11" y="10.855"/><use xlink:href="#12" y="13.026"/><use xlink:href="#13" y="17.368"/><use xlink:href="#14" y="19.539"/><use xlink:href="#15" y="21.71"/><use xlink:href="#16" y="23.881"/><use xlink:href="#17" y="26.052"/><use xlink:href="#18" y="28.223"/><use xlink:href="#19" y="30.394"/><use xlink:href="#20" y="32.565"/><use xlink:href="#21" y="34.736"/><use xlink:href="#22" y="36.907"/><use xlink:href="#23" y="39.078"/><use xlink:href="#24" y="41.249"/></svg><svg x="7700"><use xlink:href="#a"/><use xlink:href="#b" x="46.996" y="43.395"/><use xlink:href="#6"/><use xlink:href="#7" y="2.171"/><use xlink:href="#8" y="4.342"/><use xlink:href="#9" y="6.513"/><use xlink:href="#10" y="8.684"/><use xlink:href="#11" y="10.855"/><use xlink:href="#12" y="13.026"/><use xlink:href="#13" y="17.368"/><use xlink:href="#14" y="19.539"/><use xlink:href="#15" y="21.71"/><use xlink:href="#16" y="23.881"/><use xlink:href="#17" y="26.052"/><use xlink:href="#18" y="28.223"/><use xlink:href="#19" y="30.394"/><use xlink:href="#20" y="32.565"/><use xlink:href="#21" y="34.736"/><use xlink:href="#22" y="36.907"/><use xlink:href="#23" y="39.078"/><use xlink:href="#24" y="41.249"/></svg><svg x="7800"><use xlink:href="#a"/><use xlink:href="#b" x="46.996" y="43.395"/><use xlink:href="#6"/><use xlink:href="#7" y="2.171"/><use xlink:href="#8" y="4.342"/><use xlink:href="#9" y="6.513"/><use xlink:href="#10" y="8.684"/><use xlink:href="#11" y="10.855"/><use xlink:href="#12" y="13.026"/><use xlink:href="#13" y="17.368"/><use xlink:href="#14" y="19.539"/><use xlink:href="#15" y="21.71"/><use xlink:href="#16" y="23.881"/><use xlink:href="#17" y="26.052"/><use xlink:href="#18" y="28.223"/><use xlink:href="#19" y="30.394"/><use xlink:href="#20" y="32.565"/><use xlink:href="#21" y="34.736"/><use xlink:href="#22" y="36.907"/><use xlink:href="#23" y="39.078"/><use xlink:href="#24" y="41.249"/></svg><svg x="7900"><use xlink:href="#a"/><use xlink:href="#b" x="46.996" y="43.395"/><use xlink:href="#6"/><use xlink:href="#7" y="2.171"/><use xlink:href="#8" y="4.342"/><use xlink:href="#9" y="6.513"/><use xlink:href="#10" y="8.684"/><use xlink:href="#11" y="10.855"/><use xlink:href="#12" y="13.026"/><use xlink:href="#13" y="17.368"/><use xlink:href="#14" y="19.539"/><use xlink:href="#15" y="21.71"/><use xlink:href="#16" y="23.881"/><use xlink:href="#17" y="26.052"/><use xlink:href="#18" y="28.223"/><use xlink:href="#19" y="30.394"/><use xlink:href="#20" y="32.565"/><use xlink:href="#21" y="34.736"/><use xlink:href="#22" y="36.907"/><use xlink:href="#23" y="39.078"/><use xlink:href="#24" y="41.249"/></svg></svg></g></g></svg></svg>