<svg xmlns="http://www.w3.org/2000/svg" xmlns:xlink="http://www.w3.org/1999/xlink" width="1040" height="711.3"><rect width="1040" height="711.3" rx="5" ry="5" class="a"/><svg y="0%" x="0%"><circle cx="20" cy="20" r="6" fill="#ff5f58"/><circle cx="40" cy="20" r="6" fill="#ffbd2e"/><circle cx="60" cy="20" r="6" fill="#18c132"/></svg><svg height="651.3" viewBox="0 0 100 65.13" width="1000" x="15" xmlns="http://www.w3.org/2000/svg" xmlns:xlink="http://www.w3.org/1999/xlink" y="50"><style>@keyframes n{0%{transform:translateX(0)}.9%{transform:translateX(-100px)}1.9%{transform:translateX(-200px)}2.9%{transform:translateX(-300px)}3.9%{transform:translateX(-400px)}4.8%{transform:translateX(-500px)}5.8%{transform:translateX(-600px)}6.8%{transform:translateX(-700px)}7.7%{transform:translateX(-800px)}8.7%{transform:translateX(-900px)}9.7%{transform:translateX(-1000px)}10.7%{transform:translateX(-1100px)}11.6%{transform:translateX(-1200px)}12.6%{transform:translateX(-1300px)}13.6%{transform:translateX(-1400px)}14.6%{transform:translateX(-1500px)}15.5%{transform:translateX(-1600px)}16.5%{transform:translateX(-1700px)}17.5%{transform:translateX(-1800px)}18.5%{transform:translateX(-1900px)}19.4%{transform:translateX(-2000px)}20.4%{transform:translateX(-2100px)}21.4%{transform:translateX(-2200px)}22.4%{transform:translateX(-2300px)}23.3%{transform:translateX(-2400px)}24.3%{transform:translateX(-2500px)}25.3%{transform:translateX(-2600px)}26.2%{transform:translateX(-2700px)}27.2%{transform:translateX(-2800px)}28.2%{transform:translateX(-2900px)}29.2%{transform:translateX(-3000px)}29.9%{transform:translateX(-5800px)}34%{transform:translateX(-5900px)}38.1%{transform:translateX(-6000px)}42.2%{transform:translateX(-6100px)}46.3%{transform:translateX(-6200px)}50.4%{transform:translateX(-6300px)}54.4%{transform:translateX(-6400px)}58.5%{transform:translateX(-6500px)}62.6%{transform:translateX(-6600px)}66.7%{transform:translateX(-6700px)}70.8%{transform:translateX(-6800px)}74.9%{transform:translateX(-6900px)}79%{transform:translateX(-7000px)}83.1%{transform:translateX(-7100px)}87.1%{transform:translateX(-7200px)}91.2%{transform:translateX(-7300px)}95.3%{transform:translateX(-7400px)}99.4%{transform:translateX(-7500px)}to{transform:translateX(-7600px)}}.a{fill:#282d35}.f,.g,.i,.j{fill:#b9c0cb;white-space:pre}.g,.i,.j{fill:#d290e4}.i,.j{fill:#b9c0cb;font-weight:700}.j{fill:#66c2cd}</style><g font-family="Monaco,Consolas,Menlo,'Bitstream Vera Sans Mono','Powerline Symbols',monospace" font-size="1.67"><defs><symbol id="1"><text y="1.67" class="f">$</text><text x="2.004" y="1.67" class="f">neuroprivacy</text></symbol><symbol id="2"><text y="1.67" class="f">$</text><text x="2.004" y="1.67" class="f">neuroprivacy</text><text x="15.03" y="1.67" class="f">report</text></symbol><symbol id="3"><text y="1.67" class="f">$</text><text x="2.004" y="1.67" class="f">neuroprivacy</text><text x="15.03" y="1.67" class="f">report</text><text x="22.044" y="1.67" class="f">--summary</text></symbol><symbol id="4"><text y="1.67" class="f">wrote</text><text x="6.012" y="1.67" class="g">/agent/repos/neuroprivacy/docs/report/</text><text x="44.088" y="1.67" style="white-space:pre" fill="#d290e3">index.html</text></symbol><symbol id="5"><text x="54.108" y="1.67" class="f">Regenerated</text><text x="66.132" y="1.67" class="f">by</text><text x="69.138" y="1.67" class="f">`make</text><text x="75.15" y="1.67" class="f">eval`</text><text x="81.162" y="1.67" class="g">/</text><text x="83.166" y="1.67" class="f">`make</text><text x="89.178" y="1.67" class="f">research`.</text></symbol><symbol id="6"><text y="1.67" class="f">Live</text><text x="5.01" y="1.67" class="f">public-policy</text><text x="19.038" y="1.67" class="f">hold-out</text><text x="28.056" y="1.67" class="f">numbers</text><text x="36.072" y="1.67" class="f">do</text><text x="39.078" y="1.67" class="f">not</text><text x="43.086" y="1.67" class="f">exist</text><text x="49.098" y="1.67" class="f">yet.</text></symbol><symbol id="7"><text x="54.108" y="1.67" class="f">Baseline</text><text x="63.126" y="1.67" class="i">(</text><text x="64.128" y="1.67" class="f">rules+cache</text><text x="76.152" y="1.67" class="f">extractor</text><text x="85.17" y="1.67" class="i">)</text><text x="87.174" y="1.67" class="f">mean</text><text x="92.184" y="1.67" class="f">field</text><text x="98.196" y="1.67" class="f">F1</text></symbol><symbol id="8"><text y="1.67" class="f">:</text><text x="2.004" y="1.67" class="f">**</text><text x="4.008" y="1.67" class="j">1.000</text><text x="9.018" y="1.67" class="f">**</text><text x="12.024" y="1.67" class="i">(</text><text x="13.026" y="1.67" style="white-space:pre" fill="#dbab79">n</text><text x="14.028" y="1.67" class="f">=</text><text x="15.03" y="1.67" class="j">20</text><text x="17.034" y="1.67" class="i">)</text><text x="18.036" y="1.67" class="f">.</text></symbol><symbol id="9"><text x="19.038" y="1.67" class="f">#</text><text x="21.042" y="1.67" class="f">extraction_accuracy</text><text x="41.082" y="1.67" class="f">results</text></symbol><symbol id="10"><text x="48.096" y="1.67" class="f">n</text><text x="50.1" y="1.67" class="f">=</text><text x="52.104" y="1.67" class="j">20</text><text x="55.11" y="1.67" class="f">labeled</text><text x="63.126" y="1.67" class="f">synthetic</text><text x="73.146" y="1.67" class="f">policy</text><text x="80.16" y="1.67" class="f">documents.</text></symbol><symbol id="11"><text x="90.18" y="1.67" class="f">Mean</text><text x="95.19" y="1.67" class="f">field</text></symbol><symbol id="12"><text x="1.002" y="1.67" class="f">F1:</text><text x="5.01" y="1.67" class="j">1.000</text><text x="10.02" y="1.67" class="f">.</text><text x="12.024" y="1.67" class="f">Status</text><text x="19.038" y="1.67" class="f">accuracy:</text><text x="29.058" y="1.67" class="j">20</text><text x="31.062" y="1.67" class="f">/</text><text x="32.064" y="1.67" class="j">20</text><text x="35.07" y="1.67" class="f">=</text><text x="37.074" y="1.67" class="j">1.000</text><text x="42.084" y="1.67" class="f">.</text></symbol><symbol id="13"><text x="43.086" y="1.67" class="f">Cohen&apos;s</text><text x="51.102" y="1.67" class="f">kappa</text><text x="57.114" y="1.67" class="f">extractor</text><text x="67.134" y="1.67" class="f">vs</text><text x="70.14" y="1.67" class="f">keyword</text><text x="78.156" y="1.67" class="i">(</text><text x="79.158" y="1.67" class="f">micro</text><text x="84.168" y="1.67" class="i">)</text><text x="85.17" y="1.67" class="f">:</text><text x="87.174" y="1.67" class="j">0.722</text><text x="92.184" y="1.67" class="f">.</text></symbol><symbol id="14"><text x="93.186" y="1.67" class="f">Cohen&apos;s</text></symbol><symbol id="15"><text x="1.002" y="1.67" class="f">kappa</text><text x="7.014" y="1.67" class="f">gold</text><text x="12.024" y="1.67" class="i">(</text><text x="13.026" y="1.67" class="f">pass</text><text x="18.036" y="1.67" class="j">1</text><text x="19.038" y="1.67" class="i">)</text><text x="21.042" y="1.67" class="f">vs</text><text x="24.048" y="1.67" class="f">rater</text><text x="30.06" y="1.67" class="j">2</text><text x="32.064" y="1.67" class="i">(</text><text x="33.066" y="1.67" class="f">micro</text><text x="38.076" y="1.67" class="i">)</text><text x="39.078" y="1.67" class="f">:</text><text x="41.082" y="1.67" class="j">0.740</text><text x="46.092" y="1.67" class="f">.</text></symbol><symbol id="16"><text x="47.094" y="1.67" class="f">Keyword</text><text x="55.11" y="1.67" class="f">baseline</text><text x="64.128" y="1.67" class="f">missed</text><text x="71.142" y="1.67" class="f">generic-only</text><text x="84.168" y="1.67" class="f">coverage</text><text x="93.186" y="1.67" class="f">on</text><text x="96.192" y="1.67" class="j">5</text><text x="97.194" y="1.67" class="f">/</text><text x="98.196" y="1.67" class="j">5</text></symbol><symbol id="17"><text y="1.67" class="f">gold-generic</text><text x="13.026" y="1.67" class="f">documents.</text></symbol><symbol id="18"><text x="23.046" y="1.67" class="f">Decision:</text><text x="33.066" y="1.67" class="f">LLM</text><text x="37.074" y="1.67" class="f">extraction</text><text x="48.096" y="1.67" class="f">is</text><text x="51.102" y="1.67" class="f">viable</text><text x="58.116" y="1.67" class="f">on</text><text x="61.122" y="1.67" class="f">this</text><text x="66.132" y="1.67" class="f">schema:</text><text x="74.148" y="1.67" class="f">mean</text><text x="79.158" y="1.67" class="f">field</text><text x="85.17" y="1.67" class="f">F1</text><text x="88.176" y="1.67" class="i">(</text><text x="89.178" y="1.67" class="j">1.000</text><text x="94.188" y="1.67" class="i">)</text><text x="96.192" y="1.67" class="f">≥</text><text x="98.196" y="1.67" class="j">0.</text></symbol><symbol id="19"><text y="1.67" class="j">80</text><text x="3.006" y="1.67" class="f">and</text><text x="7.014" y="1.67" class="f">gold-vs-rater2</text><text x="22.044" y="1.67" class="f">k</text></symbol><symbol id="20"><text x="23.046" y="1.67" class="f">|</text><text x="25.05" y="1.67" class="f">field</text><text x="31.062" y="1.67" class="f">|</text><text x="33.066" y="1.67" class="f">gold+</text><text x="39.078" y="1.67" class="f">|</text><text x="41.082" y="1.67" class="f">precision</text><text x="51.102" y="1.67" class="f">|</text><text x="53.106" y="1.67" class="f">recall</text><text x="60.12" y="1.67" class="f">|</text><text x="62.124" y="1.67" class="f">F1</text><text x="65.13" y="1.67" class="f">|</text><text x="67.134" y="1.67" class="f">κ</text><text x="69.138" y="1.67" class="f">vs</text><text x="72.144" y="1.67" class="f">keyword</text><text x="80.16" y="1.67" class="f">|</text><text x="82.164" y="1.67" class="f">κ</text><text x="84.168" y="1.67" class="f">gold</text><text x="89.178" y="1.67" class="f">vs</text><text x="92.184" y="1.67" class="f">rater2</text><text x="99.198" y="1.67" class="f">|</text></symbol><symbol id="21"><text x="99.198" y="1.67" class="f">|</text></symbol><symbol id="22"><text x="1.002" y="1.67" class="f">---</text><text x="5.01" y="1.67" class="f">|</text><text x="7.014" y="1.67" class="f">---</text><text x="11.022" y="1.67" class="f">|</text><text x="13.026" y="1.67" class="f">---</text><text x="17.034" y="1.67" class="f">|</text><text x="19.038" y="1.67" class="f">---</text><text x="23.046" y="1.67" class="f">|</text><text x="25.05" y="1.67" class="f">---</text><text x="29.058" y="1.67" class="f">|</text><text x="31.062" y="1.67" class="f">---</text><text x="35.07" y="1.67" class="f">|</text><text x="37.074" y="1.67" class="f">---</text><text x="41.082" y="1.67" class="f">|</text></symbol><symbol id="23"><text x="42.084" y="1.67" class="f">|</text><text x="44.088" y="1.67" class="f">names_neural_data</text><text x="62.124" y="1.67" class="f">|</text><text x="64.128" y="1.67" class="j">12</text><text x="67.134" y="1.67" class="f">|</text><text x="69.138" y="1.67" class="j">1.000</text><text x="75.15" y="1.67" class="f">|</text><text x="77.154" y="1.67" class="j">1.000</text><text x="83.166" y="1.67" class="f">|</text><text x="85.17" y="1.67" class="j">1.000</text><text x="91.182" y="1.67" class="f">|</text><text x="93.186" y="1.67" class="j">0.898</text><text x="99.198" y="1.67" class="f">|</text></symbol><symbol id="24"><text x="1.002" y="1.67" class="j">0.706</text><text x="7.014" y="1.67" class="f">|</text></symbol><symbol id="25"><text x="8.016" y="1.67" class="f">|</text><text x="10.02" y="1.67" class="f">covers_generic_device_data</text><text x="37.074" y="1.67" class="f">|</text><text x="39.078" y="1.67" class="j">5</text><text x="41.082" y="1.67" class="f">|</text><text x="43.086" y="1.67" class="j">1.000</text><text x="49.098" y="1.67" class="f">|</text><text x="51.102" y="1.67" class="j">1.000</text><text x="57.114" y="1.67" class="f">|</text><text x="59.118" y="1.67" class="j">1.000</text><text x="65.13" y="1.67" class="f">|</text><text x="67.134" y="1.67" class="j">0.000</text><text x="73.146" y="1.67" class="f">|</text><text x="75.15" y="1.67" class="j">0.273</text><text x="81.162" y="1.67" class="f">|</text></symbol><symbol id="26"><text x="82.164" y="1.67" class="f">|</text><text x="84.168" y="1.67" class="f">grants_deletion</text></symbol><symbol id="27"><text y="1.67" class="f">|</text><text x="2.004" y="1.67" class="j">14</text><text x="5.01" y="1.67" class="f">|</text><text x="7.014" y="1.67" class="j">1.000</text><text x="13.026" y="1.67" class="f">|</text><text x="15.03" y="1.67" class="j">1.000</text><text x="21.042" y="1.67" class="f">|</text><text x="23.046" y="1.67" class="j">1.000</text><text x="29.058" y="1.67" class="f">|</text><text x="31.062" y="1.67" class="j">0.565</text><text x="37.074" y="1.67" class="f">|</text><text x="39.078" y="1.67" class="j">0.565</text><text x="45.09" y="1.67" class="f">|</text></symbol><symbol id="28"><text x="46.092" y="1.67" class="f">Observations</text><text x="59.118" y="1.67" class="f">only.</text><text x="65.13" y="1.67" class="f">This</text><text x="70.14" y="1.67" class="f">output</text><text x="77.154" y="1.67" class="f">is</text><text x="80.16" y="1.67" class="f">not</text><text x="84.168" y="1.67" class="f">a</text><text x="86.172" y="1.67" class="f">legal</text><text x="92.184" y="1.67" class="f">conclusi</text></symbol><symbol id="29"><text y="1.67" class="f">on,</text><text x="4.008" y="1.67" class="f">not</text><text x="8.016" y="1.67" class="f">legal</text><text x="14.028" y="1.67" class="f">advice,</text><text x="22.044" y="1.67" class="f">and</text><text x="26.052" y="1.67" class="f">not</text><text x="30.06" y="1.67" class="f">a</text><text x="32.064" y="1.67" class="f">compliance</text></symbol><symbol id="30"><text x="43.086" y="1.67" class="f">certification.</text><text x="58.116" y="1.67" class="f">Public</text><text x="65.13" y="1.67" class="f">policies</text><text x="74.148" y="1.67" class="f">only;</text><text x="80.16" y="1.67" class="f">no</text><text x="83.166" y="1.67" class="f">circumvention.</text></symbol><symbol id="a"><path fill="transparent" d="M0 0h100v31H0z"/></symbol><symbol id="b"><path fill="#6f7683" d="M0 0h1.102v2.171H0z"/></symbol></defs><path class="a" d="M0 0h100v65.13H0z"/><g style="animation-duration:8.56s;animation-iteration-count:infinite;animation-name:n;animation-timing-function:steps(1,end)"><svg width="7700"><svg><use xlink:href="#a"/><use xlink:href="#b" x="-.004"/></svg><svg x="100"><use xlink:href="#a"/><use xlink:href="#b" x="1.996"/><text y="1.67" class="f">$</text></svg><svg x="200"><use xlink:href="#a"/><use xlink:href="#b" x="2.996"/><text y="1.67" class="f">$</text><text x="2.004" y="1.67" class="f">n</text></svg><svg x="300"><use xlink:href="#a"/><use xlink:href="#b" x="3.996"/><text y="1.67" class="f">$</text><text x="2.004" y="1.67" class="f">ne</text></svg><svg x="400"><use xlink:href="#a"/><use xlink:href="#b" x="4.996"/><text y="1.67" class="f">$</text><text x="2.004" y="1.67" class="f">neu</text></svg><svg x="500"><use xlink:href="#a"/><use xlink:href="#b" x="5.996"/><text y="1.67" class="f">$</text><text x="2.004" y="1.67" class="f">neur</text></svg><svg x="600"><use xlink:href="#a"/><use xlink:href="#b" x="6.996"/><text y="1.67" class="f">$</text><text x="2.004" y="1.67" class="f">neuro</text></svg><svg x="700"><use xlink:href="#a"/><use xlink:href="#b" x="7.996"/><text y="1.67" class="f">$</text><text x="2.004" y="1.67" class="f">neurop</text></svg><svg x="800"><use xlink:href="#a"/><use xlink:href="#b" x="8.996"/><text y="1.67" class="f">$</text><text x="2.004" y="1.67" class="f">neuropr</text></svg><svg x="900"><use xlink:href="#a"/><use xlink:href="#b" x="9.996"/><text y="1.67" class="f">$</text><text x="2.004" y="1.67" class="f">neuropri</text></svg><svg x="1000"><use xlink:href="#a"/><use xlink:href="#b" x="10.996"/><text y="1.67" class="f">$</text><text x="2.004" y="1.67" class="f">neuropriv</text></svg><svg x="1100"><use xlink:href="#a"/><use xlink:href="#b" x="11.996"/><text y="1.67" class="f">$</text><text x="2.004" y="1.67" class="f">neuropriva</text></svg><svg x="1200"><use xlink:href="#a"/><use xlink:href="#b" x="12.996"/><text y="1.67" class="f">$</text><text x="2.004" y="1.67" class="f">neuroprivac</text></svg><svg x="1300"><use xlink:href="#a"/><use xlink:href="#b" x="13.996"/><use xlink:href="#1"/></svg><svg x="1400"><use xlink:href="#a"/><use xlink:href="#b" x="14.996"/><use xlink:href="#1"/></svg><svg x="1500"><use xlink:href="#a"/><use xlink:href="#b" x="15.996"/><text y="1.67" class="f">$</text><text x="2.004" y="1.67" class="f">neuroprivacy</text><text x="15.03" y="1.67" class="f">r</text></svg><svg x="1600"><use xlink:href="#a"/><use xlink:href="#b" x="16.996"/><text y="1.67" class="f">$</text><text x="2.004" y="1.67" class="f">neuroprivacy</text><text x="15.03" y="1.67" class="f">re</text></svg><svg x="1700"><use xlink:href="#a"/><use xlink:href="#b" x="17.996"/><text y="1.67" class="f">$</text><text x="2.004" y="1.67" class="f">neuroprivacy</text><text x="15.03" y="1.67" class="f">rep</text></svg><svg x="1800"><use xlink:href="#a"/><use xlink:href="#b" x="18.996"/><text y="1.67" class="f">$</text><text x="2.004" y="1.67" class="f">neuroprivacy</text><text x="15.03" y="1.67" class="f">repo</text></svg><svg x="1900"><use xlink:href="#a"/><use xlink:href="#b" x="19.996"/><text y="1.67" class="f">$</text><text x="2.004" y="1.67" class="f">neuroprivacy</text><text x="15.03" y="1.67" class="f">repor</text></svg><svg x="2000"><use xlink:href="#a"/><use xlink:href="#b" x="20.996"/><use xlink:href="#2"/></svg><svg x="2100"><use xlink:href="#a"/><use xlink:href="#b" x="21.996"/><use xlink:href="#2"/></svg><svg x="2200"><use xlink:href="#a"/><use xlink:href="#b" x="22.996"/><text y="1.67" class="f">$</text><text x="2.004" y="1.67" class="f">neuroprivacy</text><text x="15.03" y="1.67" class="f">report</text><text x="22.044" y="1.67" class="f">-</text></svg><svg x="2300"><use xlink:href="#a"/><use xlink:href="#b" x="23.996"/><text y="1.67" class="f">$</text><text x="2.004" y="1.67" class="f">neuroprivacy</text><text x="15.03" y="1.67" class="f">report</text><text x="22.044" y="1.67" class="f">--</text></svg><svg x="2400"><use xlink:href="#a"/><use xlink:href="#b" x="24.996"/><text y="1.67" class="f">$</text><text x="2.004" y="1.67" class="f">neuroprivacy</text><text x="15.03" y="1.67" class="f">report</text><text x="22.044" y="1.67" class="f">--s</text></svg><svg x="2500"><use xlink:href="#a"/><use xlink:href="#b" x="25.996"/><text y="1.67" class="f">$</text><text x="2.004" y="1.67" class="f">neuroprivacy</text><text x="15.03" y="1.67" class="f">report</text><text x="22.044" y="1.67" class="f">--su</text></svg><svg x="2600"><use xlink:href="#a"/><use xlink:href="#b" x="26.996"/><text y="1.67" class="f">$</text><text x="2.004" y="1.67" class="f">neuroprivacy</text><text x="15.03" y="1.67" class="f">report</text><text x="22.044" y="1.67" class="f">--sum</text></svg><svg x="2700"><use xlink:href="#a"/><use xlink:href="#b" x="27.996"/><text y="1.67" class="f">$</text><text x="2.004" y="1.67" class="f">neuroprivacy</text><text x="15.03" y="1.67" class="f">report</text><text x="22.044" y="1.67" class="f">--summ</text></svg><svg x="2800"><use xlink:href="#a"/><use xlink:href="#b" x="28.996"/><text y="1.67" class="f">$</text><text x="2.004" y="1.67" class="f">neuroprivacy</text><text x="15.03" y="1.67" class="f">report</text><text x="22.044" y="1.67" class="f">--summa</text></svg><svg x="2900"><use xlink:href="#a"/><use xlink:href="#b" x="29.996"/><text y="1.67" class="f">$</text><text x="2.004" y="1.67" class="f">neuroprivacy</text><text x="15.03" y="1.67" class="f">report</text><text x="22.044" y="1.67" class="f">--summar</text></svg><svg x="3000"><use xlink:href="#a"/><use xlink:href="#b" x="30.996"/><use xlink:href="#3"/></svg><svg x="3100"><use xlink:href="#a"/><use xlink:href="#b" x="-.004" y="2.146"/><use xlink:href="#3"/></svg><svg x="3200"><use xlink:href="#a"/><use xlink:href="#b" x="53.996" y="4.317"/><use xlink:href="#3"/><use xlink:href="#4" y="2.171"/></svg><svg x="3300"><use xlink:href="#a"/><use xlink:href="#b" x="53.996" y="6.488"/><use xlink:href="#3"/><use xlink:href="#4" y="2.171"/></svg><svg x="3400"><use xlink:href="#a"/><use xlink:href="#b" x="53.996" y="10.83"/><use xlink:href="#3"/><use xlink:href="#4" y="2.171"/><use xlink:href="#5" y="6.513"/><use xlink:href="#6" y="8.684"/></svg><svg x="3500"><use xlink:href="#a"/><use xlink:href="#b" x="53.996" y="13.001"/><use xlink:href="#3"/><use xlink:href="#4" y="2.171"/><use xlink:href="#5" y="6.513"/><use xlink:href="#6" y="8.684"/></svg><svg x="3600"><use xlink:href="#a"/><use xlink:href="#b" x="18.996" y="17.343"/><use xlink:href="#3"/><use xlink:href="#4" y="2.171"/><use xlink:href="#5" y="6.513"/><use xlink:href="#6" y="8.684"/><use xlink:href="#7" y="13.026"/><use xlink:href="#8" y="15.197"/></svg><svg x="3700"><use xlink:href="#a"/><use xlink:href="#b" x="18.996" y="19.514"/><use xlink:href="#3"/><use xlink:href="#4" y="2.171"/><use xlink:href="#5" y="6.513"/><use xlink:href="#6" y="8.684"/><use xlink:href="#7" y="13.026"/><use xlink:href="#8" y="15.197"/></svg><svg x="3800"><use xlink:href="#a"/><use xlink:href="#b" x="47.996" y="21.685"/><use xlink:href="#3"/><use xlink:href="#4" y="2.171"/><use xlink:href="#5" y="6.513"/><use xlink:href="#6" y="8.684"/><use xlink:href="#7" y="13.026"/><use xlink:href="#8" y="15.197"/><use xlink:href="#9" y="19.539"/></svg><svg x="3900"><use xlink:href="#a"/><use xlink:href="#b" x="47.996" y="23.856"/><use xlink:href="#3"/><use xlink:href="#4" y="2.171"/><use xlink:href="#5" y="6.513"/><use xlink:href="#6" y="8.684"/><use xlink:href="#7" y="13.026"/><use xlink:href="#8" y="15.197"/><use xlink:href="#9" y="19.539"/></svg><svg x="4000"><use xlink:href="#a"/><use xlink:href="#b" x="89.996" y="26.027"/><use xlink:href="#3"/><use xlink:href="#4" y="2.171"/><use xlink:href="#5" y="6.513"/><use xlink:href="#6" y="8.684"/><use xlink:href="#7" y="13.026"/><use xlink:href="#8" y="15.197"/><use xlink:href="#9" y="19.539"/><use xlink:href="#10" y="23.881"/></svg><svg x="4100"><use xlink:href="#a"/><use xlink:href="#b" x="89.996" y="28.198"/><use xlink:href="#3"/><use xlink:href="#4" y="2.171"/><use xlink:href="#5" y="6.513"/><use xlink:href="#6" y="8.684"/><use xlink:href="#7" y="13.026"/><use xlink:href="#8" y="15.197"/><use xlink:href="#9" y="19.539"/><use xlink:href="#10" y="23.881"/></svg><svg x="4200"><use xlink:href="#a"/><use xlink:href="#b" x="42.996" y="32.54"/><use xlink:href="#3"/><use xlink:href="#4" y="2.171"/><use xlink:href="#5" y="6.513"/><use xlink:href="#6" y="8.684"/><use xlink:href="#7" y="13.026"/><use xlink:href="#8" y="15.197"/><use xlink:href="#9" y="19.539"/><use xlink:href="#10" y="23.881"/><use xlink:href="#11" y="28.223"/><use xlink:href="#12" y="30.394"/></svg><svg x="4300"><use xlink:href="#a"/><use xlink:href="#b" x="42.996" y="34.711"/><use xlink:href="#3"/><use xlink:href="#4" y="2.171"/><use xlink:href="#5" y="6.513"/><use xlink:href="#6" y="8.684"/><use xlink:href="#7" y="13.026"/><use xlink:href="#8" y="15.197"/><use xlink:href="#9" y="19.539"/><use xlink:href="#10" y="23.881"/><use xlink:href="#11" y="28.223"/><use xlink:href="#12" y="30.394"/></svg><svg x="4400"><use xlink:href="#a"/><use xlink:href="#b" x="92.996" y="36.882"/><use xlink:href="#3"/><use xlink:href="#4" y="2.171"/><use xlink:href="#5" y="6.513"/><use xlink:href="#6" y="8.684"/><use xlink:href="#7" y="13.026"/><use xlink:href="#8" y="15.197"/><use xlink:href="#9" y="19.539"/><use xlink:href="#10" y="23.881"/><use xlink:href="#11" y="28.223"/><use xlink:href="#12" y="30.394"/><use xlink:href="#13" y="34.736"/></svg><svg x="4500"><use xlink:href="#a"/><use xlink:href="#b" x="92.996" y="39.053"/><use xlink:href="#3"/><use xlink:href="#4" y="2.171"/><use xlink:href="#5" y="6.513"/><use xlink:href="#6" y="8.684"/><use xlink:href="#7" y="13.026"/><use xlink:href="#8" y="15.197"/><use xlink:href="#9" y="19.539"/><use xlink:href="#10" y="23.881"/><use xlink:href="#11" y="28.223"/><use xlink:href="#12" y="30.394"/><use xlink:href="#13" y="34.736"/></svg><svg x="4600"><use xlink:href="#a"/><use xlink:href="#b" x="46.996" y="43.395"/><use xlink:href="#3"/><use xlink:href="#4" y="2.171"/><use xlink:href="#5" y="6.513"/><use xlink:href="#6" y="8.684"/><use xlink:href="#7" y="13.026"/><use xlink:href="#8" y="15.197"/><use xlink:href="#9" y="19.539"/><use xlink:href="#10" y="23.881"/><use xlink:href="#11" y="28.223"/><use xlink:href="#12" y="30.394"/><use xlink:href="#13" y="34.736"/><use xlink:href="#14" y="39.078"/><use xlink:href="#15" y="41.249"/></svg><svg x="4700"><use xlink:href="#a"/><use xlink:href="#b" x="46.996" y="45.566"/><use xlink:href="#3"/><use xlink:href="#4" y="2.171"/><use xlink:href="#5" y="6.513"/><use xlink:href="#6" y="8.684"/><use xlink:href="#7" y="13.026"/><use xlink:href="#8" y="15.197"/><use xlink:href="#9" y="19.539"/><use xlink:href="#10" y="23.881"/><use xlink:href="#11" y="28.223"/><use xlink:href="#12" y="30.394"/><use xlink:href="#13" y="34.736"/><use xlink:href="#14" y="39.078"/><use xlink:href="#15" y="41.249"/></svg><svg x="4800"><use xlink:href="#a"/><use xlink:href="#b" x="22.996" y="49.908"/><use xlink:href="#3"/><use xlink:href="#4" y="2.171"/><use xlink:href="#5" y="6.513"/><use xlink:href="#6" y="8.684"/><use xlink:href="#7" y="13.026"/><use xlink:href="#8" y="15.197"/><use xlink:href="#9" y="19.539"/><use xlink:href="#10" y="23.881"/><use xlink:href="#11" y="28.223"/><use xlink:href="#12" y="30.394"/><use xlink:href="#13" y="34.736"/><use xlink:href="#14" y="39.078"/><use xlink:href="#15" y="41.249"/><use xlink:href="#16" y="45.591"/><use xlink:href="#17" y="47.762"/></svg><svg x="4900"><use xlink:href="#a"/><use xlink:href="#b" x="22.996" y="52.079"/><use xlink:href="#3"/><use xlink:href="#4" y="2.171"/><use xlink:href="#5" y="6.513"/><use xlink:href="#6" y="8.684"/><use xlink:href="#7" y="13.026"/><use xlink:href="#8" y="15.197"/><use xlink:href="#9" y="19.539"/><use xlink:href="#10" y="23.881"/><use xlink:href="#11" y="28.223"/><use xlink:href="#12" y="30.394"/><use xlink:href="#13" y="34.736"/><use xlink:href="#14" y="39.078"/><use xlink:href="#15" y="41.249"/><use xlink:href="#16" y="45.591"/><use xlink:href="#17" y="47.762"/></svg><svg x="5000"><use xlink:href="#a"/><use xlink:href="#b" x="22.996" y="56.421"/><use xlink:href="#3"/><use xlink:href="#4" y="2.171"/><use xlink:href="#5" y="6.513"/><use xlink:href="#6" y="8.684"/><use xlink:href="#7" y="13.026"/><use xlink:href="#8" y="15.197"/><use xlink:href="#9" y="19.539"/><use xlink:href="#10" y="23.881"/><use xlink:href="#11" y="28.223"/><use xlink:href="#12" y="30.394"/><use xlink:href="#13" y="34.736"/><use xlink:href="#14" y="39.078"/><use xlink:href="#15" y="41.249"/><use xlink:href="#16" y="45.591"/><use xlink:href="#17" y="47.762"/><use xlink:href="#18" y="52.104"/><use xlink:href="#19" y="54.275"/></svg><svg x="5100"><use xlink:href="#a"/><use xlink:href="#b" x="22.996" y="58.592"/><use xlink:href="#3"/><use xlink:href="#4" y="2.171"/><use xlink:href="#5" y="6.513"/><use xlink:href="#6" y="8.684"/><use xlink:href="#7" y="13.026"/><use xlink:href="#8" y="15.197"/><use xlink:href="#9" y="19.539"/><use xlink:href="#10" y="23.881"/><use xlink:href="#11" y="28.223"/><use xlink:href="#12" y="30.394"/><use xlink:href="#13" y="34.736"/><use xlink:href="#14" y="39.078"/><use xlink:href="#15" y="41.249"/><use xlink:href="#16" y="45.591"/><use xlink:href="#17" y="47.762"/><use xlink:href="#18" y="52.104"/><use xlink:href="#19" y="54.275"/></svg><svg x="5200"><use xlink:href="#a"/><use xlink:href="#b" x="98.996" y="60.763"/><use xlink:href="#3"/><use xlink:href="#4" y="2.171"/><use xlink:href="#5" y="6.513"/><use xlink:href="#6" y="8.684"/><use xlink:href="#7" y="13.026"/><use xlink:href="#8" y="15.197"/><use xlink:href="#9" y="19.539"/><use xlink:href="#10" y="23.881"/><use xlink:href="#11" y="28.223"/><use xlink:href="#12" y="30.394"/><use xlink:href="#13" y="34.736"/><use xlink:href="#14" y="39.078"/><use xlink:href="#15" y="41.249"/><use xlink:href="#16" y="45.591"/><use xlink:href="#17" y="47.762"/><use xlink:href="#18" y="52.104"/><use xlink:href="#19" y="54.275"/><use xlink:href="#20" y="58.617"/></svg><svg x="5300"><use xlink:href="#a"/><use xlink:href="#b" x="41.996" y="65.105"/><use xlink:href="#3"/><use xlink:href="#4" y="2.171"/><use xlink:href="#5" y="6.513"/><use xlink:href="#6" y="8.684"/><use xlink:href="#7" y="13.026"/><use xlink:href="#8" y="15.197"/><use xlink:href="#9" y="19.539"/><use xlink:href="#10" y="23.881"/><use xlink:href="#11" y="28.223"/><use xlink:href="#12" y="30.394"/><use xlink:href="#13" y="34.736"/><use xlink:href="#14" y="39.078"/><use xlink:href="#15" y="41.249"/><use xlink:href="#16" y="45.591"/><use xlink:href="#17" y="47.762"/><use xlink:href="#18" y="52.104"/><use xlink:href="#19" y="54.275"/><use xlink:href="#20" y="58.617"/><use xlink:href="#21" y="60.788"/><use xlink:href="#22" y="62.959"/></svg><svg x="5400"><use xlink:href="#a"/><use xlink:href="#b" x="7.996" y="65.105"/><use xlink:href="#5" y="2.171"/><use xlink:href="#6" y="4.342"/><use xlink:href="#7" y="8.684"/><use xlink:href="#8" y="10.855"/><use xlink:href="#9" y="15.197"/><use xlink:href="#10" y="19.539"/><use xlink:href="#11" y="23.881"/><use xlink:href="#12" y="26.052"/><use xlink:href="#13" y="30.394"/><use xlink:href="#14" y="34.736"/><use xlink:href="#15" y="36.907"/><use xlink:href="#16" y="41.249"/><use xlink:href="#17" y="43.42"/><use xlink:href="#18" y="47.762"/><use xlink:href="#19" y="49.933"/><use xlink:href="#20" y="54.275"/><use xlink:href="#21" y="56.446"/><use xlink:href="#22" y="58.617"/><use xlink:href="#23" y="60.788"/><use xlink:href="#24" y="62.959"/></svg><svg x="5500"><use xlink:href="#a"/><use xlink:href="#b" x="81.996" y="65.105"/><use xlink:href="#5"/><use xlink:href="#6" y="2.171"/><use xlink:href="#7" y="6.513"/><use xlink:href="#8" y="8.684"/><use xlink:href="#9" y="13.026"/><use xlink:href="#10" y="17.368"/><use xlink:href="#11" y="21.71"/><use xlink:href="#12" y="23.881"/><use xlink:href="#13" y="28.223"/><use xlink:href="#14" y="32.565"/><use xlink:href="#15" y="34.736"/><use xlink:href="#16" y="39.078"/><use xlink:href="#17" y="41.249"/><use xlink:href="#18" y="45.591"/><use xlink:href="#19" y="47.762"/><use xlink:href="#20" y="52.104"/><use xlink:href="#21" y="54.275"/><use xlink:href="#22" y="56.446"/><use xlink:href="#23" y="58.617"/><use xlink:href="#24" y="60.788"/><use xlink:href="#25" y="62.959"/></svg><svg x="5600"><use xlink:href="#a"/><use xlink:href="#b" x="45.996" y="65.105"/><use xlink:href="#7" y="2.171"/><use xlink:href="#8" y="4.342"/><use xlink:href="#9" y="8.684"/><use xlink:href="#10" y="13.026"/><use xlink:href="#11" y="17.368"/><use xlink:href="#12" y="19.539"/><use xlink:href="#13" y="23.881"/><use xlink:href="#14" y="28.223"/><use xlink:href="#15" y="30.394"/><use xlink:href="#16" y="34.736"/><use xlink:href="#17" y="36.907"/><use xlink:href="#18" y="41.249"/><use xlink:href="#19" y="43.42"/><use xlink:href="#20" y="47.762"/><use xlink:href="#21" y="49.933"/><use xlink:href="#22" y="52.104"/><use xlink:href="#23" y="54.275"/><use xlink:href="#24" y="56.446"/><use xlink:href="#25" y="58.617"/><use xlink:href="#26" y="60.788"/><use xlink:href="#27" y="62.959"/></svg><svg x="5700"><use xlink:href="#a"/><use xlink:href="#b" x="42.996" y="65.105"/><use xlink:href="#8"/><use xlink:href="#9" y="4.342"/><use xlink:href="#10" y="8.684"/><use xlink:href="#11" y="13.026"/><use xlink:href="#12" y="15.197"/><use xlink:href="#13" y="19.539"/><use xlink:href="#14" y="23.881"/><use xlink:href="#15" y="26.052"/><use xlink:href="#16" y="30.394"/><use xlink:href="#17" y="32.565"/><use xlink:href="#18" y="36.907"/><use xlink:href="#19" y="39.078"/><use xlink:href="#20" y="43.42"/><use xlink:href="#21" y="45.591"/><use xlink:href="#22" y="47.762"/><use xlink:href="#23" y="49.933"/><use xlink:href="#24" y="52.104"/><use xlink:href="#25" y="54.275"/><use xlink:href="#26" y="56.446"/><use xlink:href="#27" y="58.617"/><use xlink:href="#28" y="60.788"/><use xlink:href="#29" y="62.959"/></svg><svg x="5800"><use xlink:href="#a"/><use xlink:href="#b" x="96.996" y="65.105"/><use xlink:href="#9" y="2.171"/><use xlink:href="#10" y="6.513"/><use xlink:href="#11" y="10.855"/><use xlink:href="#12" y="13.026"/><use xlink:href="#13" y="17.368"/><use xlink:href="#14" y="21.71"/><use xlink:href="#15" y="23.881"/><use xlink:href="#16" y="28.223"/><use xlink:href="#17" y="30.394"/><use xlink:href="#18" y="34.736"/><use xlink:href="#19" y="36.907"/><use xlink:href="#20" y="41.249"/><use xlink:href="#21" y="43.42"/><use xlink:href="#22" y="45.591"/><use xlink:href="#23" y="47.762"/><use xlink:href="#24" y="49.933"/><use xlink:href="#25" y="52.104"/><use xlink:href="#26" y="54.275"/><use xlink:href="#27" y="56.446"/><use xlink:href="#28" y="58.617"/><use xlink:href="#29" y="60.788"/><use xlink:href="#30" y="62.959"/></svg><svg x="5900"><use xlink:href="#a"/><use xlink:href="#b" x="96.996" y="65.105"/><use xlink:href="#9" y="2.171"/><use xlink:href="#10" y="6.513"/><use xlink:href="#11" y="10.855"/><use xlink:href="#12" y="13.026"/><use xlink:href="#13" y="17.368"/><use xlink:href="#14" y="21.71"/><use xlink:href="#15" y="23.881"/><use xlink:href="#16" y="28.223"/><use xlink:href="#17" y="30.394"/><use xlink:href="#18" y="34.736"/><use xlink:href="#19" y="36.907"/><use xlink:href="#20" y="41.249"/><use xlink:href="#21" y="43.42"/><use xlink:href="#22" y="45.591"/><use xlink:href="#23" y="47.762"/><use xlink:href="#24" y="49.933"/><use xlink:href="#25" y="52.104"/><use xlink:href="#26" y="54.275"/><use xlink:href="#27" y="56.446"/><use xlink:href="#28" y="58.617"/><use xlink:href="#29" y="60.788"/><use xlink:href="#30" y="62.959"/></svg><svg x="6000"><use xlink:href="#a"/><use xlink:href="#b" x="96.996" y="65.105"/><use xlink:href="#9" y="2.171"/><use xlink:href="#10" y="6.513"/><use xlink:href="#11" y="10.855"/><use xlink:href="#12" y="13.026"/><use xlink:href="#13" y="17.368"/><use xlink:href="#14" y="21.71"/><use xlink:href="#15" y="23.881"/><use xlink:href="#16" y="28.223"/><use xlink:href="#17" y="30.394"/><use xlink:href="#18" y="34.736"/><use xlink:href="#19" y="36.907"/><use xlink:href="#20" y="41.249"/><use xlink:href="#21" y="43.42"/><use xlink:href="#22" y="45.591"/><use xlink:href="#23" y="47.762"/><use xlink:href="#24" y="49.933"/><use xlink:href="#25" y="52.104"/><use xlink:href="#26" y="54.275"/><use xlink:href="#27" y="56.446"/><use xlink:href="#28" y="58.617"/><use xlink:href="#29" y="60.788"/><use xlink:href="#30" y="62.959"/></svg><svg x="6100"><use xlink:href="#a"/><use xlink:href="#b" x="96.996" y="65.105"/><use xlink:href="#9" y="2.171"/><use xlink:href="#10" y="6.513"/><use xlink:href="#11" y="10.855"/><use xlink:href="#12" y="13.026"/><use xlink:href="#13" y="17.368"/><use xlink:href="#14" y="21.71"/><use xlink:href="#15" y="23.881"/><use xlink:href="#16" y="28.223"/><use xlink:href="#17" y="30.394"/><use xlink:href="#18" y="34.736"/><use xlink:href="#19" y="36.907"/><use xlink:href="#20" y="41.249"/><use xlink:href="#21" y="43.42"/><use xlink:href="#22" y="45.591"/><use xlink:href="#23" y="47.762"/><use xlink:href="#24" y="49.933"/><use xlink:href="#25" y="52.104"/><use xlink:href="#26" y="54.275"/><use xlink:href="#27" y="56.446"/><use xlink:href="#28" y="58.617"/><use xlink:href="#29" y="60.788"/><use xlink:href="#30" y="62.959"/></svg><svg x="6200"><use xlink:href="#a"/><use xlink:href="#b" x="96.996" y="65.105"/><use xlink:href="#9" y="2.171"/><use xlink:href="#10" y="6.513"/><use xlink:href="#11" y="10.855"/><use xlink:href="#12" y="13.026"/><use xlink:href="#13" y="17.368"/><use xlink:href="#14" y="21.71"/><use xlink:href="#15" y="23.881"/><use xlink:href="#16" y="28.223"/><use xlink:href="#17" y="30.394"/><use xlink:href="#18" y="34.736"/><use xlink:href="#19" y="36.907"/><use xlink:href="#20" y="41.249"/><use xlink:href="#21" y="43.42"/><use xlink:href="#22" y="45.591"/><use xlink:href="#23" y="47.762"/><use xlink:href="#24" y="49.933"/><use xlink:href="#25" y="52.104"/><use xlink:href="#26" y="54.275"/><use xlink:href="#27" y="56.446"/><use xlink:href="#28" y="58.617"/><use xlink:href="#29" y="60.788"/><use xlink:href="#30" y="62.959"/></svg><svg x="6300"><use xlink:href="#a"/><use xlink:href="#b" x="96.996" y="65.105"/><use xlink:href="#9" y="2.171"/><use xlink:href="#10" y="6.513"/><use xlink:href="#11" y="10.855"/><use xlink:href="#12" y="13.026"/><use xlink:href="#13" y="17.368"/><use xlink:href="#14" y="21.71"/><use xlink:href="#15" y="23.881"/><use xlink:href="#16" y="28.223"/><use xlink:href="#17" y="30.394"/><use xlink:href="#18" y="34.736"/><use xlink:href="#19" y="36.907"/><use xlink:href="#20" y="41.249"/><use xlink:href="#21" y="43.42"/><use xlink:href="#22" y="45.591"/><use xlink:href="#23" y="47.762"/><use xlink:href="#24" y="49.933"/><use xlink:href="#25" y="52.104"/><use xlink:href="#26" y="54.275"/><use xlink:href="#27" y="56.446"/><use xlink:href="#28" y="58.617"/><use xlink:href="#29" y="60.788"/><use xlink:href="#30" y="62.959"/></svg><svg x="6400"><use xlink:href="#a"/><use xlink:href="#b" x="96.996" y="65.105"/><use xlink:href="#9" y="2.171"/><use xlink:href="#10" y="6.513"/><use xlink:href="#11" y="10.855"/><use xlink:href="#12" y="13.026"/><use xlink:href="#13" y="17.368"/><use xlink:href="#14" y="21.71"/><use xlink:href="#15" y="23.881"/><use xlink:href="#16" y="28.223"/><use xlink:href="#17" y="30.394"/><use xlink:href="#18" y="34.736"/><use xlink:href="#19" y="36.907"/><use xlink:href="#20" y="41.249"/><use xlink:href="#21" y="43.42"/><use xlink:href="#22" y="45.591"/><use xlink:href="#23" y="47.762"/><use xlink:href="#24" y="49.933"/><use xlink:href="#25" y="52.104"/><use xlink:href="#26" y="54.275"/><use xlink:href="#27" y="56.446"/><use xlink:href="#28" y="58.617"/><use xlink:href="#29" y="60.788"/><use xlink:href="#30" y="62.959"/></svg><svg x="6500"><use xlink:href="#a"/><use xlink:href="#b" x="96.996" y="65.105"/><use xlink:href="#9" y="2.171"/><use xlink:href="#10" y="6.513"/><use xlink:href="#11" y="10.855"/><use xlink:href="#12" y="13.026"/><use xlink:href="#13" y="17.368"/><use xlink:href="#14" y="21.71"/><use xlink:href="#15" y="23.881"/><use xlink:href="#16" y="28.223"/><use xlink:href="#17" y="30.394"/><use xlink:href="#18" y="34.736"/><use xlink:href="#19" y="36.907"/><use xlink:href="#20" y="41.249"/><use xlink:href="#21" y="43.42"/><use xlink:href="#22" y="45.591"/><use xlink:href="#23" y="47.762"/><use xlink:href="#24" y="49.933"/><use xlink:href="#25" y="52.104"/><use xlink:href="#26" y="54.275"/><use xlink:href="#27" y="56.446"/><use xlink:href="#28" y="58.617"/><use xlink:href="#29" y="60.788"/><use xlink:href="#30" y="62.959"/></svg><svg x="6600"><use xlink:href="#a"/><use xlink:href="#b" x="96.996" y="65.105"/><use xlink:href="#9" y="2.171"/><use xlink:href="#10" y="6.513"/><use xlink:href="#11" y="10.855"/><use xlink:href="#12" y="13.026"/><use xlink:href="#13" y="17.368"/><use xlink:href="#14" y="21.71"/><use xlink:href="#15" y="23.881"/><use xlink:href="#16" y="28.223"/><use xlink:href="#17" y="30.394"/><use xlink:href="#18" y="34.736"/><use xlink:href="#19" y="36.907"/><use xlink:href="#20" y="41.249"/><use xlink:href="#21" y="43.42"/><use xlink:href="#22" y="45.591"/><use xlink:href="#23" y="47.762"/><use xlink:href="#24" y="49.933"/><use xlink:href="#25" y="52.104"/><use xlink:href="#26" y="54.275"/><use xlink:href="#27" y="56.446"/><use xlink:href="#28" y="58.617"/><use xlink:href="#29" y="60.788"/><use xlink:href="#30" y="62.959"/></svg><svg x="6700"><use xlink:href="#a"/><use xlink:href="#b" x="96.996" y="65.105"/><use xlink:href="#9" y="2.171"/><use xlink:href="#10" y="6.513"/><use xlink:href="#11" y="10.855"/><use xlink:href="#12" y="13.026"/><use xlink:href="#13" y="17.368"/><use xlink:href="#14" y="21.71"/><use xlink:href="#15" y="23.881"/><use xlink:href="#16" y="28.223"/><use xlink:href="#17" y="30.394"/><use xlink:href="#18" y="34.736"/><use xlink:href="#19" y="36.907"/><use xlink:href="#20" y="41.249"/><use xlink:href="#21" y="43.42"/><use xlink:href="#22" y="45.591"/><use xlink:href="#23" y="47.762"/><use xlink:href="#24" y="49.933"/><use xlink:href="#25" y="52.104"/><use xlink:href="#26" y="54.275"/><use xlink:href="#27" y="56.446"/><use xlink:href="#28" y="58.617"/><use xlink:href="#29" y="60.788"/><use xlink:href="#30" y="62.959"/></svg><svg x="6800"><use xlink:href="#a"/><use xlink:href="#b" x="96.996" y="65.105"/><use xlink:href="#9" y="2.171"/><use xlink:href="#10" y="6.513"/><use xlink:href="#11" y="10.855"/><use xlink:href="#12" y="13.026"/><use xlink:href="#13" y="17.368"/><use xlink:href="#14" y="21.71"/><use xlink:href="#15" y="23.881"/><use xlink:href="#16" y="28.223"/><use xlink:href="#17" y="30.394"/><use xlink:href="#18" y="34.736"/><use xlink:href="#19" y="36.907"/><use xlink:href="#20" y="41.249"/><use xlink:href="#21" y="43.42"/><use xlink:href="#22" y="45.591"/><use xlink:href="#23" y="47.762"/><use xlink:href="#24" y="49.933"/><use xlink:href="#25" y="52.104"/><use xlink:href="#26" y="54.275"/><use xlink:href="#27" y="56.446"/><use xlink:href="#28" y="58.617"/><use xlink:href="#29" y="60.788"/><use xlink:href="#30" y="62.959"/></svg><svg x="6900"><use xlink:href="#a"/><use xlink:href="#b" x="96.996" y="65.105"/><use xlink:href="#9" y="2.171"/><use xlink:href="#10" y="6.513"/><use xlink:href="#11" y="10.855"/><use xlink:href="#12" y="13.026"/><use xlink:href="#13" y="17.368"/><use xlink:href="#14" y="21.71"/><use xlink:href="#15" y="23.881"/><use xlink:href="#16" y="28.223"/><use xlink:href="#17" y="30.394"/><use xlink:href="#18" y="34.736"/><use xlink:href="#19" y="36.907"/><use xlink:href="#20" y="41.249"/><use xlink:href="#21" y="43.42"/><use xlink:href="#22" y="45.591"/><use xlink:href="#23" y="47.762"/><use xlink:href="#24" y="49.933"/><use xlink:href="#25" y="52.104"/><use xlink:href="#26" y="54.275"/><use xlink:href="#27" y="56.446"/><use xlink:href="#28" y="58.617"/><use xlink:href="#29" y="60.788"/><use xlink:href="#30" y="62.959"/></svg><svg x="7000"><use xlink:href="#a"/><use xlink:href="#b" x="96.996" y="65.105"/><use xlink:href="#9" y="2.171"/><use xlink:href="#10" y="6.513"/><use xlink:href="#11" y="10.855"/><use xlink:href="#12" y="13.026"/><use xlink:href="#13" y="17.368"/><use xlink:href="#14" y="21.71"/><use xlink:href="#15" y="23.881"/><use xlink:href="#16" y="28.223"/><use xlink:href="#17" y="30.394"/><use xlink:href="#18" y="34.736"/><use xlink:href="#19" y="36.907"/><use xlink:href="#20" y="41.249"/><use xlink:href="#21" y="43.42"/><use xlink:href="#22" y="45.591"/><use xlink:href="#23" y="47.762"/><use xlink:href="#24" y="49.933"/><use xlink:href="#25" y="52.104"/><use xlink:href="#26" y="54.275"/><use xlink:href="#27" y="56.446"/><use xlink:href="#28" y="58.617"/><use xlink:href="#29" y="60.788"/><use xlink:href="#30" y="62.959"/></svg><svg x="7100"><use xlink:href="#a"/><use xlink:href="#b" x="96.996" y="65.105"/><use xlink:href="#9" y="2.171"/><use xlink:href="#10" y="6.513"/><use xlink:href="#11" y="10.855"/><use xlink:href="#12" y="13.026"/><use xlink:href="#13" y="17.368"/><use xlink:href="#14" y="21.71"/><use xlink:href="#15" y="23.881"/><use xlink:href="#16" y="28.223"/><use xlink:href="#17" y="30.394"/><use xlink:href="#18" y="34.736"/><use xlink:href="#19" y="36.907"/><use xlink:href="#20" y="41.249"/><use xlink:href="#21" y="43.42"/><use xlink:href="#22" y="45.591"/><use xlink:href="#23" y="47.762"/><use xlink:href="#24" y="49.933"/><use xlink:href="#25" y="52.104"/><use xlink:href="#26" y="54.275"/><use xlink:href="#27" y="56.446"/><use xlink:href="#28" y="58.617"/><use xlink:href="#29" y="60.788"/><use xlink:href="#30" y="62.959"/></svg><svg x="7200"><use xlink:href="#a"/><use xlink:href="#b" x="96.996" y="65.105"/><use xlink:href="#9" y="2.171"/><use xlink:href="#10" y="6.513"/><use xlink:href="#11" y="10.855"/><use xlink:href="#12" y="13.026"/><use xlink:href="#13" y="17.368"/><use xlink:href="#14" y="21.71"/><use xlink:href="#15" y="23.881"/><use xlink:href="#16" y="28.223"/><use xlink:href="#17" y="30.394"/><use xlink:href="#18" y="34.736"/><use xlink:href="#19" y="36.907"/><use xlink:href="#20" y="41.249"/><use xlink:href="#21" y="43.42"/><use xlink:href="#22" y="45.591"/><use xlink:href="#23" y="47.762"/><use xlink:href="#24" y="49.933"/><use xlink:href="#25" y="52.104"/><use xlink:href="#26" y="54.275"/><use xlink:href="#27" y="56.446"/><use xlink:href="#28" y="58.617"/><use xlink:href="#29" y="60.788"/><use xlink:href="#30" y="62.959"/></svg><svg x="7300"><use xlink:href="#a"/><use xlink:href="#b" x="96.996" y="65.105"/><use xlink:href="#9" y="2.171"/><use xlink:href="#10" y="6.513"/><use xlink:href="#11" y="10.855"/><use xlink:href="#12" y="13.026"/><use xlink:href="#13" y="17.368"/><use xlink:href="#14" y="21.71"/><use xlink:href="#15" y="23.881"/><use xlink:href="#16" y="28.223"/><use xlink:href="#17" y="30.394"/><use xlink:href="#18" y="34.736"/><use xlink:href="#19" y="36.907"/><use xlink:href="#20" y="41.249"/><use xlink:href="#21" y="43.42"/><use xlink:href="#22" y="45.591"/><use xlink:href="#23" y="47.762"/><use xlink:href="#24" y="49.933"/><use xlink:href="#25" y="52.104"/><use xlink:href="#26" y="54.275"/><use xlink:href="#27" y="56.446"/><use xlink:href="#28" y="58.617"/><use xlink:href="#29" y="60.788"/><use xlink:href="#30" y="62.959"/></svg><svg x="7400"><use xlink:href="#a"/><use xlink:href="#b" x="96.996" y="65.105"/><use xlink:href="#9" y="2.171"/><use xlink:href="#10" y="6.513"/><use xlink:href="#11" y="10.855"/><use xlink:href="#12" y="13.026"/><use xlink:href="#13" y="17.368"/><use xlink:href="#14" y="21.71"/><use xlink:href="#15" y="23.881"/><use xlink:href="#16" y="28.223"/><use xlink:href="#17" y="30.394"/><use xlink:href="#18" y="34.736"/><use xlink:href="#19" y="36.907"/><use xlink:href="#20" y="41.249"/><use xlink:href="#21" y="43.42"/><use xlink:href="#22" y="45.591"/><use xlink:href="#23" y="47.762"/><use xlink:href="#24" y="49.933"/><use xlink:href="#25" y="52.104"/><use xlink:href="#26" y="54.275"/><use xlink:href="#27" y="56.446"/><use xlink:href="#28" y="58.617"/><use xlink:href="#29" y="60.788"/><use xlink:href="#30" y="62.959"/></svg><svg x="7500"><use xlink:href="#a"/><use xlink:href="#b" x="96.996" y="65.105"/><use xlink:href="#9" y="2.171"/><use xlink:href="#10" y="6.513"/><use xlink:href="#11" y="10.855"/><use xlink:href="#12" y="13.026"/><use xlink:href="#13" y="17.368"/><use xlink:href="#14" y="21.71"/><use xlink:href="#15" y="23.881"/><use xlink:href="#16" y="28.223"/><use xlink:href="#17" y="30.394"/><use xlink:href="#18" y="34.736"/><use xlink:href="#19" y="36.907"/><use xlink:href="#20" y="41.249"/><use xlink:href="#21" y="43.42"/><use xlink:href="#22" y="45.591"/><use xlink:href="#23" y="47.762"/><use xlink:href="#24" y="49.933"/><use xlink:href="#25" y="52.104"/><use xlink:href="#26" y="54.275"/><use xlink:href="#27" y="56.446"/><use xlink:href="#28" y="58.617"/><use xlink:href="#29" y="60.788"/><use xlink:href="#30" y="62.959"/></svg><svg x="7600"><use xlink:href="#a"/><use xlink:href="#b" x="96.996" y="65.105"/><use xlink:href="#9" y="2.171"/><use xlink:href="#10" y="6.513"/><use xlink:href="#11" y="10.855"/><use xlink:href="#12" y="13.026"/><use xlink:href="#13" y="17.368"/><use xlink:href="#14" y="21.71"/><use xlink:href="#15" y="23.881"/><use xlink:href="#16" y="28.223"/><use xlink:href="#17" y="30.394"/><use xlink:href="#18" y="34.736"/><use xlink:href="#19" y="36.907"/><use xlink:href="#20" y="41.249"/><use xlink:href="#21" y="43.42"/><use xlink:href="#22" y="45.591"/><use xlink:href="#23" y="47.762"/><use xlink:href="#24" y="49.933"/><use xlink:href="#25" y="52.104"/><use xlink:href="#26" y="54.275"/><use xlink:href="#27" y="56.446"/><use xlink:href="#28" y="58.617"/><use xlink:href="#29" y="60.788"/><use xlink:href="#30" y="62.959"/></svg></svg></g></g></svg></svg>